%TF.GenerationSoftware,KiCad,Pcbnew,(5.1.9)-1*%
%TF.CreationDate,2021-10-02T13:05:51-07:00*%
%TF.ProjectId,Solar Powered Weather Station,536f6c61-7220-4506-9f77-657265642057,rev?*%
%TF.SameCoordinates,Original*%
%TF.FileFunction,Legend,Top*%
%TF.FilePolarity,Positive*%
%FSLAX46Y46*%
G04 Gerber Fmt 4.6, Leading zero omitted, Abs format (unit mm)*
G04 Created by KiCad (PCBNEW (5.1.9)-1) date 2021-10-02 13:05:51*
%MOMM*%
%LPD*%
G01*
G04 APERTURE LIST*
%ADD10C,0.150000*%
%ADD11C,0.120000*%
G04 APERTURE END LIST*
D10*
X28687142Y-68514285D02*
X28758571Y-68300000D01*
X28758571Y-67942857D01*
X28687142Y-67800000D01*
X28615714Y-67728571D01*
X28472857Y-67657142D01*
X28330000Y-67657142D01*
X28187142Y-67728571D01*
X28115714Y-67800000D01*
X28044285Y-67942857D01*
X27972857Y-68228571D01*
X27901428Y-68371428D01*
X27830000Y-68442857D01*
X27687142Y-68514285D01*
X27544285Y-68514285D01*
X27401428Y-68442857D01*
X27330000Y-68371428D01*
X27258571Y-68228571D01*
X27258571Y-67871428D01*
X27330000Y-67657142D01*
X28758571Y-66800000D02*
X28687142Y-66942857D01*
X28615714Y-67014285D01*
X28472857Y-67085714D01*
X28044285Y-67085714D01*
X27901428Y-67014285D01*
X27830000Y-66942857D01*
X27758571Y-66800000D01*
X27758571Y-66585714D01*
X27830000Y-66442857D01*
X27901428Y-66371428D01*
X28044285Y-66300000D01*
X28472857Y-66300000D01*
X28615714Y-66371428D01*
X28687142Y-66442857D01*
X28758571Y-66585714D01*
X28758571Y-66800000D01*
X28758571Y-65442857D02*
X28687142Y-65585714D01*
X28544285Y-65657142D01*
X27258571Y-65657142D01*
X28758571Y-64228571D02*
X27972857Y-64228571D01*
X27830000Y-64300000D01*
X27758571Y-64442857D01*
X27758571Y-64728571D01*
X27830000Y-64871428D01*
X28687142Y-64228571D02*
X28758571Y-64371428D01*
X28758571Y-64728571D01*
X28687142Y-64871428D01*
X28544285Y-64942857D01*
X28401428Y-64942857D01*
X28258571Y-64871428D01*
X28187142Y-64728571D01*
X28187142Y-64371428D01*
X28115714Y-64228571D01*
X28758571Y-63514285D02*
X27758571Y-63514285D01*
X28044285Y-63514285D02*
X27901428Y-63442857D01*
X27830000Y-63371428D01*
X27758571Y-63228571D01*
X27758571Y-63085714D01*
X28187142Y-62585714D02*
X28187142Y-61442857D01*
X28758571Y-60728571D02*
X27258571Y-60728571D01*
X27258571Y-60157142D01*
X27330000Y-60014285D01*
X27401428Y-59942857D01*
X27544285Y-59871428D01*
X27758571Y-59871428D01*
X27901428Y-59942857D01*
X27972857Y-60014285D01*
X28044285Y-60157142D01*
X28044285Y-60728571D01*
X28758571Y-59014285D02*
X28687142Y-59157142D01*
X28615714Y-59228571D01*
X28472857Y-59300000D01*
X28044285Y-59300000D01*
X27901428Y-59228571D01*
X27830000Y-59157142D01*
X27758571Y-59014285D01*
X27758571Y-58800000D01*
X27830000Y-58657142D01*
X27901428Y-58585714D01*
X28044285Y-58514285D01*
X28472857Y-58514285D01*
X28615714Y-58585714D01*
X28687142Y-58657142D01*
X28758571Y-58800000D01*
X28758571Y-59014285D01*
X27758571Y-58014285D02*
X28758571Y-57728571D01*
X28044285Y-57442857D01*
X28758571Y-57157142D01*
X27758571Y-56871428D01*
X28687142Y-55728571D02*
X28758571Y-55871428D01*
X28758571Y-56157142D01*
X28687142Y-56300000D01*
X28544285Y-56371428D01*
X27972857Y-56371428D01*
X27830000Y-56300000D01*
X27758571Y-56157142D01*
X27758571Y-55871428D01*
X27830000Y-55728571D01*
X27972857Y-55657142D01*
X28115714Y-55657142D01*
X28258571Y-56371428D01*
X28758571Y-55014285D02*
X27758571Y-55014285D01*
X28044285Y-55014285D02*
X27901428Y-54942857D01*
X27830000Y-54871428D01*
X27758571Y-54728571D01*
X27758571Y-54585714D01*
X28687142Y-53514285D02*
X28758571Y-53657142D01*
X28758571Y-53942857D01*
X28687142Y-54085714D01*
X28544285Y-54157142D01*
X27972857Y-54157142D01*
X27830000Y-54085714D01*
X27758571Y-53942857D01*
X27758571Y-53657142D01*
X27830000Y-53514285D01*
X27972857Y-53442857D01*
X28115714Y-53442857D01*
X28258571Y-54157142D01*
X28758571Y-52157142D02*
X27258571Y-52157142D01*
X28687142Y-52157142D02*
X28758571Y-52300000D01*
X28758571Y-52585714D01*
X28687142Y-52728571D01*
X28615714Y-52800000D01*
X28472857Y-52871428D01*
X28044285Y-52871428D01*
X27901428Y-52800000D01*
X27830000Y-52728571D01*
X27758571Y-52585714D01*
X27758571Y-52300000D01*
X27830000Y-52157142D01*
X27258571Y-50442857D02*
X28758571Y-50085714D01*
X27687142Y-49800000D01*
X28758571Y-49514285D01*
X27258571Y-49157142D01*
X28687142Y-48014285D02*
X28758571Y-48157142D01*
X28758571Y-48442857D01*
X28687142Y-48585714D01*
X28544285Y-48657142D01*
X27972857Y-48657142D01*
X27830000Y-48585714D01*
X27758571Y-48442857D01*
X27758571Y-48157142D01*
X27830000Y-48014285D01*
X27972857Y-47942857D01*
X28115714Y-47942857D01*
X28258571Y-48657142D01*
X28758571Y-46657142D02*
X27972857Y-46657142D01*
X27830000Y-46728571D01*
X27758571Y-46871428D01*
X27758571Y-47157142D01*
X27830000Y-47300000D01*
X28687142Y-46657142D02*
X28758571Y-46800000D01*
X28758571Y-47157142D01*
X28687142Y-47300000D01*
X28544285Y-47371428D01*
X28401428Y-47371428D01*
X28258571Y-47300000D01*
X28187142Y-47157142D01*
X28187142Y-46800000D01*
X28115714Y-46657142D01*
X27758571Y-46157142D02*
X27758571Y-45585714D01*
X27258571Y-45942857D02*
X28544285Y-45942857D01*
X28687142Y-45871428D01*
X28758571Y-45728571D01*
X28758571Y-45585714D01*
X28758571Y-45085714D02*
X27258571Y-45085714D01*
X28758571Y-44442857D02*
X27972857Y-44442857D01*
X27830000Y-44514285D01*
X27758571Y-44657142D01*
X27758571Y-44871428D01*
X27830000Y-45014285D01*
X27901428Y-45085714D01*
X28687142Y-43157142D02*
X28758571Y-43300000D01*
X28758571Y-43585714D01*
X28687142Y-43728571D01*
X28544285Y-43800000D01*
X27972857Y-43800000D01*
X27830000Y-43728571D01*
X27758571Y-43585714D01*
X27758571Y-43300000D01*
X27830000Y-43157142D01*
X27972857Y-43085714D01*
X28115714Y-43085714D01*
X28258571Y-43800000D01*
X28758571Y-42442857D02*
X27758571Y-42442857D01*
X28044285Y-42442857D02*
X27901428Y-42371428D01*
X27830000Y-42300000D01*
X27758571Y-42157142D01*
X27758571Y-42014285D01*
X28687142Y-40442857D02*
X28758571Y-40228571D01*
X28758571Y-39871428D01*
X28687142Y-39728571D01*
X28615714Y-39657142D01*
X28472857Y-39585714D01*
X28330000Y-39585714D01*
X28187142Y-39657142D01*
X28115714Y-39728571D01*
X28044285Y-39871428D01*
X27972857Y-40157142D01*
X27901428Y-40300000D01*
X27830000Y-40371428D01*
X27687142Y-40442857D01*
X27544285Y-40442857D01*
X27401428Y-40371428D01*
X27330000Y-40300000D01*
X27258571Y-40157142D01*
X27258571Y-39800000D01*
X27330000Y-39585714D01*
X27758571Y-39157142D02*
X27758571Y-38585714D01*
X27258571Y-38942857D02*
X28544285Y-38942857D01*
X28687142Y-38871428D01*
X28758571Y-38728571D01*
X28758571Y-38585714D01*
X28758571Y-37442857D02*
X27972857Y-37442857D01*
X27830000Y-37514285D01*
X27758571Y-37657142D01*
X27758571Y-37942857D01*
X27830000Y-38085714D01*
X28687142Y-37442857D02*
X28758571Y-37585714D01*
X28758571Y-37942857D01*
X28687142Y-38085714D01*
X28544285Y-38157142D01*
X28401428Y-38157142D01*
X28258571Y-38085714D01*
X28187142Y-37942857D01*
X28187142Y-37585714D01*
X28115714Y-37442857D01*
X27758571Y-36942857D02*
X27758571Y-36371428D01*
X27258571Y-36728571D02*
X28544285Y-36728571D01*
X28687142Y-36657142D01*
X28758571Y-36514285D01*
X28758571Y-36371428D01*
X28758571Y-35871428D02*
X27758571Y-35871428D01*
X27258571Y-35871428D02*
X27330000Y-35942857D01*
X27401428Y-35871428D01*
X27330000Y-35800000D01*
X27258571Y-35871428D01*
X27401428Y-35871428D01*
X28758571Y-34942857D02*
X28687142Y-35085714D01*
X28615714Y-35157142D01*
X28472857Y-35228571D01*
X28044285Y-35228571D01*
X27901428Y-35157142D01*
X27830000Y-35085714D01*
X27758571Y-34942857D01*
X27758571Y-34728571D01*
X27830000Y-34585714D01*
X27901428Y-34514285D01*
X28044285Y-34442857D01*
X28472857Y-34442857D01*
X28615714Y-34514285D01*
X28687142Y-34585714D01*
X28758571Y-34728571D01*
X28758571Y-34942857D01*
X27758571Y-33800000D02*
X28758571Y-33800000D01*
X27901428Y-33800000D02*
X27830000Y-33728571D01*
X27758571Y-33585714D01*
X27758571Y-33371428D01*
X27830000Y-33228571D01*
X27972857Y-33157142D01*
X28758571Y-33157142D01*
X29658571Y-55550000D02*
X29658571Y-54692857D01*
X31158571Y-55121428D02*
X29658571Y-55121428D01*
X31087142Y-53621428D02*
X31158571Y-53764285D01*
X31158571Y-54050000D01*
X31087142Y-54192857D01*
X30944285Y-54264285D01*
X30372857Y-54264285D01*
X30230000Y-54192857D01*
X30158571Y-54050000D01*
X30158571Y-53764285D01*
X30230000Y-53621428D01*
X30372857Y-53550000D01*
X30515714Y-53550000D01*
X30658571Y-54264285D01*
X31158571Y-52264285D02*
X30372857Y-52264285D01*
X30230000Y-52335714D01*
X30158571Y-52478571D01*
X30158571Y-52764285D01*
X30230000Y-52907142D01*
X31087142Y-52264285D02*
X31158571Y-52407142D01*
X31158571Y-52764285D01*
X31087142Y-52907142D01*
X30944285Y-52978571D01*
X30801428Y-52978571D01*
X30658571Y-52907142D01*
X30587142Y-52764285D01*
X30587142Y-52407142D01*
X30515714Y-52264285D01*
X31158571Y-51550000D02*
X30158571Y-51550000D01*
X30301428Y-51550000D02*
X30230000Y-51478571D01*
X30158571Y-51335714D01*
X30158571Y-51121428D01*
X30230000Y-50978571D01*
X30372857Y-50907142D01*
X31158571Y-50907142D01*
X30372857Y-50907142D02*
X30230000Y-50835714D01*
X30158571Y-50692857D01*
X30158571Y-50478571D01*
X30230000Y-50335714D01*
X30372857Y-50264285D01*
X31158571Y-50264285D01*
X31158571Y-47621428D02*
X31158571Y-48478571D01*
X31158571Y-48050000D02*
X29658571Y-48050000D01*
X29872857Y-48192857D01*
X30015714Y-48335714D01*
X30087142Y-48478571D01*
X29801428Y-47050000D02*
X29730000Y-46978571D01*
X29658571Y-46835714D01*
X29658571Y-46478571D01*
X29730000Y-46335714D01*
X29801428Y-46264285D01*
X29944285Y-46192857D01*
X30087142Y-46192857D01*
X30301428Y-46264285D01*
X31158571Y-47121428D01*
X31158571Y-46192857D01*
X33558571Y-52764285D02*
X32844285Y-53264285D01*
X33558571Y-53621428D02*
X32058571Y-53621428D01*
X32058571Y-53050000D01*
X32130000Y-52907142D01*
X32201428Y-52835714D01*
X32344285Y-52764285D01*
X32558571Y-52764285D01*
X32701428Y-52835714D01*
X32772857Y-52907142D01*
X32844285Y-53050000D01*
X32844285Y-53621428D01*
X33487142Y-51550000D02*
X33558571Y-51692857D01*
X33558571Y-51978571D01*
X33487142Y-52121428D01*
X33344285Y-52192857D01*
X32772857Y-52192857D01*
X32630000Y-52121428D01*
X32558571Y-51978571D01*
X32558571Y-51692857D01*
X32630000Y-51550000D01*
X32772857Y-51478571D01*
X32915714Y-51478571D01*
X33058571Y-52192857D01*
X32558571Y-50978571D02*
X33558571Y-50621428D01*
X32558571Y-50264285D01*
X33130000Y-48621428D02*
X33130000Y-47907142D01*
X33558571Y-48764285D02*
X32058571Y-48264285D01*
X33558571Y-47764285D01*
X132239047Y-108720000D02*
X132143809Y-108672380D01*
X132000952Y-108672380D01*
X131858095Y-108720000D01*
X131762857Y-108815238D01*
X131715238Y-108910476D01*
X131667619Y-109100952D01*
X131667619Y-109243809D01*
X131715238Y-109434285D01*
X131762857Y-109529523D01*
X131858095Y-109624761D01*
X132000952Y-109672380D01*
X132096190Y-109672380D01*
X132239047Y-109624761D01*
X132286666Y-109577142D01*
X132286666Y-109243809D01*
X132096190Y-109243809D01*
X134239047Y-109672380D02*
X134239047Y-108672380D01*
X134477142Y-108672380D01*
X134620000Y-108720000D01*
X134715238Y-108815238D01*
X134762857Y-108910476D01*
X134810476Y-109100952D01*
X134810476Y-109243809D01*
X134762857Y-109434285D01*
X134715238Y-109529523D01*
X134620000Y-109624761D01*
X134477142Y-109672380D01*
X134239047Y-109672380D01*
X136762857Y-109291428D02*
X137524761Y-109291428D01*
X137143809Y-109672380D02*
X137143809Y-108910476D01*
X132358095Y-104592380D02*
X132358095Y-103592380D01*
X132691428Y-104306666D01*
X133024761Y-103592380D01*
X133024761Y-104592380D01*
X134024761Y-103640000D02*
X133929523Y-103592380D01*
X133786666Y-103592380D01*
X133643809Y-103640000D01*
X133548571Y-103735238D01*
X133500952Y-103830476D01*
X133453333Y-104020952D01*
X133453333Y-104163809D01*
X133500952Y-104354285D01*
X133548571Y-104449523D01*
X133643809Y-104544761D01*
X133786666Y-104592380D01*
X133881904Y-104592380D01*
X134024761Y-104544761D01*
X134072380Y-104497142D01*
X134072380Y-104163809D01*
X133881904Y-104163809D01*
X134548571Y-104592380D02*
X134739047Y-104592380D01*
X134834285Y-104544761D01*
X134881904Y-104497142D01*
X134977142Y-104354285D01*
X135024761Y-104163809D01*
X135024761Y-103782857D01*
X134977142Y-103687619D01*
X134929523Y-103640000D01*
X134834285Y-103592380D01*
X134643809Y-103592380D01*
X134548571Y-103640000D01*
X134500952Y-103687619D01*
X134453333Y-103782857D01*
X134453333Y-104020952D01*
X134500952Y-104116190D01*
X134548571Y-104163809D01*
X134643809Y-104211428D01*
X134834285Y-104211428D01*
X134929523Y-104163809D01*
X134977142Y-104116190D01*
X135024761Y-104020952D01*
X135500952Y-104592380D02*
X135691428Y-104592380D01*
X135786666Y-104544761D01*
X135834285Y-104497142D01*
X135929523Y-104354285D01*
X135977142Y-104163809D01*
X135977142Y-103782857D01*
X135929523Y-103687619D01*
X135881904Y-103640000D01*
X135786666Y-103592380D01*
X135596190Y-103592380D01*
X135500952Y-103640000D01*
X135453333Y-103687619D01*
X135405714Y-103782857D01*
X135405714Y-104020952D01*
X135453333Y-104116190D01*
X135500952Y-104163809D01*
X135596190Y-104211428D01*
X135786666Y-104211428D01*
X135881904Y-104163809D01*
X135929523Y-104116190D01*
X135977142Y-104020952D01*
X136881904Y-103592380D02*
X136405714Y-103592380D01*
X136358095Y-104068571D01*
X136405714Y-104020952D01*
X136500952Y-103973333D01*
X136739047Y-103973333D01*
X136834285Y-104020952D01*
X136881904Y-104068571D01*
X136929523Y-104163809D01*
X136929523Y-104401904D01*
X136881904Y-104497142D01*
X136834285Y-104544761D01*
X136739047Y-104592380D01*
X136500952Y-104592380D01*
X136405714Y-104544761D01*
X136358095Y-104497142D01*
X132239047Y-93480000D02*
X132143809Y-93432380D01*
X132000952Y-93432380D01*
X131858095Y-93480000D01*
X131762857Y-93575238D01*
X131715238Y-93670476D01*
X131667619Y-93860952D01*
X131667619Y-94003809D01*
X131715238Y-94194285D01*
X131762857Y-94289523D01*
X131858095Y-94384761D01*
X132000952Y-94432380D01*
X132096190Y-94432380D01*
X132239047Y-94384761D01*
X132286666Y-94337142D01*
X132286666Y-94003809D01*
X132096190Y-94003809D01*
X134239047Y-94432380D02*
X134239047Y-93432380D01*
X134477142Y-93432380D01*
X134620000Y-93480000D01*
X134715238Y-93575238D01*
X134762857Y-93670476D01*
X134810476Y-93860952D01*
X134810476Y-94003809D01*
X134762857Y-94194285D01*
X134715238Y-94289523D01*
X134620000Y-94384761D01*
X134477142Y-94432380D01*
X134239047Y-94432380D01*
X136762857Y-94051428D02*
X137524761Y-94051428D01*
X137143809Y-94432380D02*
X137143809Y-93670476D01*
X131477142Y-89352380D02*
X131477142Y-88352380D01*
X131715238Y-88352380D01*
X131858095Y-88400000D01*
X131953333Y-88495238D01*
X132000952Y-88590476D01*
X132048571Y-88780952D01*
X132048571Y-88923809D01*
X132000952Y-89114285D01*
X131953333Y-89209523D01*
X131858095Y-89304761D01*
X131715238Y-89352380D01*
X131477142Y-89352380D01*
X132429523Y-89304761D02*
X132572380Y-89352380D01*
X132810476Y-89352380D01*
X132905714Y-89304761D01*
X132953333Y-89257142D01*
X133000952Y-89161904D01*
X133000952Y-89066666D01*
X132953333Y-88971428D01*
X132905714Y-88923809D01*
X132810476Y-88876190D01*
X132620000Y-88828571D01*
X132524761Y-88780952D01*
X132477142Y-88733333D01*
X132429523Y-88638095D01*
X132429523Y-88542857D01*
X132477142Y-88447619D01*
X132524761Y-88400000D01*
X132620000Y-88352380D01*
X132858095Y-88352380D01*
X133000952Y-88400000D01*
X133953333Y-89352380D02*
X133381904Y-89352380D01*
X133667619Y-89352380D02*
X133667619Y-88352380D01*
X133572380Y-88495238D01*
X133477142Y-88590476D01*
X133381904Y-88638095D01*
X134524761Y-88780952D02*
X134429523Y-88733333D01*
X134381904Y-88685714D01*
X134334285Y-88590476D01*
X134334285Y-88542857D01*
X134381904Y-88447619D01*
X134429523Y-88400000D01*
X134524761Y-88352380D01*
X134715238Y-88352380D01*
X134810476Y-88400000D01*
X134858095Y-88447619D01*
X134905714Y-88542857D01*
X134905714Y-88590476D01*
X134858095Y-88685714D01*
X134810476Y-88733333D01*
X134715238Y-88780952D01*
X134524761Y-88780952D01*
X134429523Y-88828571D01*
X134381904Y-88876190D01*
X134334285Y-88971428D01*
X134334285Y-89161904D01*
X134381904Y-89257142D01*
X134429523Y-89304761D01*
X134524761Y-89352380D01*
X134715238Y-89352380D01*
X134810476Y-89304761D01*
X134858095Y-89257142D01*
X134905714Y-89161904D01*
X134905714Y-88971428D01*
X134858095Y-88876190D01*
X134810476Y-88828571D01*
X134715238Y-88780952D01*
X135667619Y-88828571D02*
X135810476Y-88876190D01*
X135858095Y-88923809D01*
X135905714Y-89019047D01*
X135905714Y-89161904D01*
X135858095Y-89257142D01*
X135810476Y-89304761D01*
X135715238Y-89352380D01*
X135334285Y-89352380D01*
X135334285Y-88352380D01*
X135667619Y-88352380D01*
X135762857Y-88400000D01*
X135810476Y-88447619D01*
X135858095Y-88542857D01*
X135858095Y-88638095D01*
X135810476Y-88733333D01*
X135762857Y-88780952D01*
X135667619Y-88828571D01*
X135334285Y-88828571D01*
X136286666Y-88447619D02*
X136334285Y-88400000D01*
X136429523Y-88352380D01*
X136667619Y-88352380D01*
X136762857Y-88400000D01*
X136810476Y-88447619D01*
X136858095Y-88542857D01*
X136858095Y-88638095D01*
X136810476Y-88780952D01*
X136239047Y-89352380D01*
X136858095Y-89352380D01*
X137477142Y-88352380D02*
X137572380Y-88352380D01*
X137667619Y-88400000D01*
X137715238Y-88447619D01*
X137762857Y-88542857D01*
X137810476Y-88733333D01*
X137810476Y-88971428D01*
X137762857Y-89161904D01*
X137715238Y-89257142D01*
X137667619Y-89304761D01*
X137572380Y-89352380D01*
X137477142Y-89352380D01*
X137381904Y-89304761D01*
X137334285Y-89257142D01*
X137286666Y-89161904D01*
X137239047Y-88971428D01*
X137239047Y-88733333D01*
X137286666Y-88542857D01*
X137334285Y-88447619D01*
X137381904Y-88400000D01*
X137477142Y-88352380D01*
X132239047Y-78240000D02*
X132143809Y-78192380D01*
X132000952Y-78192380D01*
X131858095Y-78240000D01*
X131762857Y-78335238D01*
X131715238Y-78430476D01*
X131667619Y-78620952D01*
X131667619Y-78763809D01*
X131715238Y-78954285D01*
X131762857Y-79049523D01*
X131858095Y-79144761D01*
X132000952Y-79192380D01*
X132096190Y-79192380D01*
X132239047Y-79144761D01*
X132286666Y-79097142D01*
X132286666Y-78763809D01*
X132096190Y-78763809D01*
X134239047Y-79192380D02*
X134239047Y-78192380D01*
X134477142Y-78192380D01*
X134620000Y-78240000D01*
X134715238Y-78335238D01*
X134762857Y-78430476D01*
X134810476Y-78620952D01*
X134810476Y-78763809D01*
X134762857Y-78954285D01*
X134715238Y-79049523D01*
X134620000Y-79144761D01*
X134477142Y-79192380D01*
X134239047Y-79192380D01*
X136762857Y-78811428D02*
X137524761Y-78811428D01*
X137143809Y-79192380D02*
X137143809Y-78430476D01*
X132500952Y-74112380D02*
X132500952Y-73112380D01*
X132739047Y-73112380D01*
X132881904Y-73160000D01*
X132977142Y-73255238D01*
X133024761Y-73350476D01*
X133072380Y-73540952D01*
X133072380Y-73683809D01*
X133024761Y-73874285D01*
X132977142Y-73969523D01*
X132881904Y-74064761D01*
X132739047Y-74112380D01*
X132500952Y-74112380D01*
X133500952Y-74112380D02*
X133500952Y-73112380D01*
X133500952Y-73588571D02*
X134072380Y-73588571D01*
X134072380Y-74112380D02*
X134072380Y-73112380D01*
X134405714Y-73112380D02*
X134977142Y-73112380D01*
X134691428Y-74112380D02*
X134691428Y-73112380D01*
X135262857Y-73207619D02*
X135310476Y-73160000D01*
X135405714Y-73112380D01*
X135643809Y-73112380D01*
X135739047Y-73160000D01*
X135786666Y-73207619D01*
X135834285Y-73302857D01*
X135834285Y-73398095D01*
X135786666Y-73540952D01*
X135215238Y-74112380D01*
X135834285Y-74112380D01*
X136215238Y-73207619D02*
X136262857Y-73160000D01*
X136358095Y-73112380D01*
X136596190Y-73112380D01*
X136691428Y-73160000D01*
X136739047Y-73207619D01*
X136786666Y-73302857D01*
X136786666Y-73398095D01*
X136739047Y-73540952D01*
X136167619Y-74112380D01*
X136786666Y-74112380D01*
X129707142Y-63000000D02*
X129611904Y-62952380D01*
X129469047Y-62952380D01*
X129326190Y-63000000D01*
X129230952Y-63095238D01*
X129183333Y-63190476D01*
X129135714Y-63380952D01*
X129135714Y-63523809D01*
X129183333Y-63714285D01*
X129230952Y-63809523D01*
X129326190Y-63904761D01*
X129469047Y-63952380D01*
X129564285Y-63952380D01*
X129707142Y-63904761D01*
X129754761Y-63857142D01*
X129754761Y-63523809D01*
X129564285Y-63523809D01*
X131707142Y-63952380D02*
X131707142Y-62952380D01*
X131945238Y-62952380D01*
X132088095Y-63000000D01*
X132183333Y-63095238D01*
X132230952Y-63190476D01*
X132278571Y-63380952D01*
X132278571Y-63523809D01*
X132230952Y-63714285D01*
X132183333Y-63809523D01*
X132088095Y-63904761D01*
X131945238Y-63952380D01*
X131707142Y-63952380D01*
X134802380Y-63857142D02*
X134754761Y-63904761D01*
X134611904Y-63952380D01*
X134516666Y-63952380D01*
X134373809Y-63904761D01*
X134278571Y-63809523D01*
X134230952Y-63714285D01*
X134183333Y-63523809D01*
X134183333Y-63380952D01*
X134230952Y-63190476D01*
X134278571Y-63095238D01*
X134373809Y-63000000D01*
X134516666Y-62952380D01*
X134611904Y-62952380D01*
X134754761Y-63000000D01*
X134802380Y-63047619D01*
X136754761Y-63571428D02*
X137516666Y-63571428D01*
X137135714Y-63952380D02*
X137135714Y-63190476D01*
X130921428Y-58348571D02*
X131064285Y-58396190D01*
X131111904Y-58443809D01*
X131159523Y-58539047D01*
X131159523Y-58681904D01*
X131111904Y-58777142D01*
X131064285Y-58824761D01*
X130969047Y-58872380D01*
X130588095Y-58872380D01*
X130588095Y-57872380D01*
X130921428Y-57872380D01*
X131016666Y-57920000D01*
X131064285Y-57967619D01*
X131111904Y-58062857D01*
X131111904Y-58158095D01*
X131064285Y-58253333D01*
X131016666Y-58300952D01*
X130921428Y-58348571D01*
X130588095Y-58348571D01*
X131588095Y-58872380D02*
X131588095Y-57872380D01*
X131921428Y-58586666D01*
X132254761Y-57872380D01*
X132254761Y-58872380D01*
X132730952Y-58872380D02*
X132730952Y-57872380D01*
X133111904Y-57872380D01*
X133207142Y-57920000D01*
X133254761Y-57967619D01*
X133302380Y-58062857D01*
X133302380Y-58205714D01*
X133254761Y-58300952D01*
X133207142Y-58348571D01*
X133111904Y-58396190D01*
X132730952Y-58396190D01*
X134254761Y-58872380D02*
X133683333Y-58872380D01*
X133969047Y-58872380D02*
X133969047Y-57872380D01*
X133873809Y-58015238D01*
X133778571Y-58110476D01*
X133683333Y-58158095D01*
X134826190Y-58300952D02*
X134730952Y-58253333D01*
X134683333Y-58205714D01*
X134635714Y-58110476D01*
X134635714Y-58062857D01*
X134683333Y-57967619D01*
X134730952Y-57920000D01*
X134826190Y-57872380D01*
X135016666Y-57872380D01*
X135111904Y-57920000D01*
X135159523Y-57967619D01*
X135207142Y-58062857D01*
X135207142Y-58110476D01*
X135159523Y-58205714D01*
X135111904Y-58253333D01*
X135016666Y-58300952D01*
X134826190Y-58300952D01*
X134730952Y-58348571D01*
X134683333Y-58396190D01*
X134635714Y-58491428D01*
X134635714Y-58681904D01*
X134683333Y-58777142D01*
X134730952Y-58824761D01*
X134826190Y-58872380D01*
X135016666Y-58872380D01*
X135111904Y-58824761D01*
X135159523Y-58777142D01*
X135207142Y-58681904D01*
X135207142Y-58491428D01*
X135159523Y-58396190D01*
X135111904Y-58348571D01*
X135016666Y-58300952D01*
X135826190Y-57872380D02*
X135921428Y-57872380D01*
X136016666Y-57920000D01*
X136064285Y-57967619D01*
X136111904Y-58062857D01*
X136159523Y-58253333D01*
X136159523Y-58491428D01*
X136111904Y-58681904D01*
X136064285Y-58777142D01*
X136016666Y-58824761D01*
X135921428Y-58872380D01*
X135826190Y-58872380D01*
X135730952Y-58824761D01*
X135683333Y-58777142D01*
X135635714Y-58681904D01*
X135588095Y-58491428D01*
X135588095Y-58253333D01*
X135635714Y-58062857D01*
X135683333Y-57967619D01*
X135730952Y-57920000D01*
X135826190Y-57872380D01*
X31369047Y-137231428D02*
X32130952Y-137231428D01*
X31750000Y-137612380D02*
X31750000Y-136850476D01*
X31369047Y-123261428D02*
X32130952Y-123261428D01*
X31750000Y-123642380D02*
X31750000Y-122880476D01*
X31369047Y-137231428D02*
X32130952Y-137231428D01*
X31750000Y-137612380D02*
X31750000Y-136850476D01*
X31369047Y-102941428D02*
X32130952Y-102941428D01*
X31750000Y-103322380D02*
X31750000Y-102560476D01*
X25852380Y-148271904D02*
X24852380Y-148271904D01*
X24852380Y-147890952D01*
X24900000Y-147795714D01*
X24947619Y-147748095D01*
X25042857Y-147700476D01*
X25185714Y-147700476D01*
X25280952Y-147748095D01*
X25328571Y-147795714D01*
X25376190Y-147890952D01*
X25376190Y-148271904D01*
X25852380Y-147129047D02*
X25804761Y-147224285D01*
X25757142Y-147271904D01*
X25661904Y-147319523D01*
X25376190Y-147319523D01*
X25280952Y-147271904D01*
X25233333Y-147224285D01*
X25185714Y-147129047D01*
X25185714Y-146986190D01*
X25233333Y-146890952D01*
X25280952Y-146843333D01*
X25376190Y-146795714D01*
X25661904Y-146795714D01*
X25757142Y-146843333D01*
X25804761Y-146890952D01*
X25852380Y-146986190D01*
X25852380Y-147129047D01*
X25185714Y-146462380D02*
X25852380Y-146271904D01*
X25376190Y-146081428D01*
X25852380Y-145890952D01*
X25185714Y-145700476D01*
X25804761Y-144938571D02*
X25852380Y-145033809D01*
X25852380Y-145224285D01*
X25804761Y-145319523D01*
X25709523Y-145367142D01*
X25328571Y-145367142D01*
X25233333Y-145319523D01*
X25185714Y-145224285D01*
X25185714Y-145033809D01*
X25233333Y-144938571D01*
X25328571Y-144890952D01*
X25423809Y-144890952D01*
X25519047Y-145367142D01*
X25852380Y-144462380D02*
X25185714Y-144462380D01*
X25376190Y-144462380D02*
X25280952Y-144414761D01*
X25233333Y-144367142D01*
X25185714Y-144271904D01*
X25185714Y-144176666D01*
X25804761Y-143129047D02*
X25852380Y-142986190D01*
X25852380Y-142748095D01*
X25804761Y-142652857D01*
X25757142Y-142605238D01*
X25661904Y-142557619D01*
X25566666Y-142557619D01*
X25471428Y-142605238D01*
X25423809Y-142652857D01*
X25376190Y-142748095D01*
X25328571Y-142938571D01*
X25280952Y-143033809D01*
X25233333Y-143081428D01*
X25138095Y-143129047D01*
X25042857Y-143129047D01*
X24947619Y-143081428D01*
X24900000Y-143033809D01*
X24852380Y-142938571D01*
X24852380Y-142700476D01*
X24900000Y-142557619D01*
X25185714Y-142224285D02*
X25852380Y-142033809D01*
X25376190Y-141843333D01*
X25852380Y-141652857D01*
X25185714Y-141462380D01*
X25852380Y-141081428D02*
X25185714Y-141081428D01*
X24852380Y-141081428D02*
X24900000Y-141129047D01*
X24947619Y-141081428D01*
X24900000Y-141033809D01*
X24852380Y-141081428D01*
X24947619Y-141081428D01*
X25185714Y-140748095D02*
X25185714Y-140367142D01*
X24852380Y-140605238D02*
X25709523Y-140605238D01*
X25804761Y-140557619D01*
X25852380Y-140462380D01*
X25852380Y-140367142D01*
X25804761Y-139605238D02*
X25852380Y-139700476D01*
X25852380Y-139890952D01*
X25804761Y-139986190D01*
X25757142Y-140033809D01*
X25661904Y-140081428D01*
X25376190Y-140081428D01*
X25280952Y-140033809D01*
X25233333Y-139986190D01*
X25185714Y-139890952D01*
X25185714Y-139700476D01*
X25233333Y-139605238D01*
X25852380Y-139176666D02*
X24852380Y-139176666D01*
X25852380Y-138748095D02*
X25328571Y-138748095D01*
X25233333Y-138795714D01*
X25185714Y-138890952D01*
X25185714Y-139033809D01*
X25233333Y-139129047D01*
X25280952Y-139176666D01*
X25852380Y-84922857D02*
X25852380Y-85494285D01*
X25852380Y-85208571D02*
X24852380Y-85208571D01*
X24995238Y-85303809D01*
X25090476Y-85399047D01*
X25138095Y-85494285D01*
X24947619Y-84541904D02*
X24900000Y-84494285D01*
X24852380Y-84399047D01*
X24852380Y-84160952D01*
X24900000Y-84065714D01*
X24947619Y-84018095D01*
X25042857Y-83970476D01*
X25138095Y-83970476D01*
X25280952Y-84018095D01*
X25852380Y-84589523D01*
X25852380Y-83970476D01*
X24852380Y-83684761D02*
X25852380Y-83351428D01*
X24852380Y-83018095D01*
X25328571Y-81589523D02*
X25376190Y-81446666D01*
X25423809Y-81399047D01*
X25519047Y-81351428D01*
X25661904Y-81351428D01*
X25757142Y-81399047D01*
X25804761Y-81446666D01*
X25852380Y-81541904D01*
X25852380Y-81922857D01*
X24852380Y-81922857D01*
X24852380Y-81589523D01*
X24900000Y-81494285D01*
X24947619Y-81446666D01*
X25042857Y-81399047D01*
X25138095Y-81399047D01*
X25233333Y-81446666D01*
X25280952Y-81494285D01*
X25328571Y-81589523D01*
X25328571Y-81922857D01*
X25852380Y-80494285D02*
X25328571Y-80494285D01*
X25233333Y-80541904D01*
X25185714Y-80637142D01*
X25185714Y-80827619D01*
X25233333Y-80922857D01*
X25804761Y-80494285D02*
X25852380Y-80589523D01*
X25852380Y-80827619D01*
X25804761Y-80922857D01*
X25709523Y-80970476D01*
X25614285Y-80970476D01*
X25519047Y-80922857D01*
X25471428Y-80827619D01*
X25471428Y-80589523D01*
X25423809Y-80494285D01*
X25185714Y-80160952D02*
X25185714Y-79780000D01*
X24852380Y-80018095D02*
X25709523Y-80018095D01*
X25804761Y-79970476D01*
X25852380Y-79875238D01*
X25852380Y-79780000D01*
X25185714Y-79589523D02*
X25185714Y-79208571D01*
X24852380Y-79446666D02*
X25709523Y-79446666D01*
X25804761Y-79399047D01*
X25852380Y-79303809D01*
X25852380Y-79208571D01*
X25804761Y-78494285D02*
X25852380Y-78589523D01*
X25852380Y-78780000D01*
X25804761Y-78875238D01*
X25709523Y-78922857D01*
X25328571Y-78922857D01*
X25233333Y-78875238D01*
X25185714Y-78780000D01*
X25185714Y-78589523D01*
X25233333Y-78494285D01*
X25328571Y-78446666D01*
X25423809Y-78446666D01*
X25519047Y-78922857D01*
X25852380Y-78018095D02*
X25185714Y-78018095D01*
X25376190Y-78018095D02*
X25280952Y-77970476D01*
X25233333Y-77922857D01*
X25185714Y-77827619D01*
X25185714Y-77732380D01*
X25185714Y-77494285D02*
X25852380Y-77256190D01*
X25185714Y-77018095D02*
X25852380Y-77256190D01*
X26090476Y-77351428D01*
X26138095Y-77399047D01*
X26185714Y-77494285D01*
X25804761Y-99488095D02*
X25852380Y-99345238D01*
X25852380Y-99107142D01*
X25804761Y-99011904D01*
X25757142Y-98964285D01*
X25661904Y-98916666D01*
X25566666Y-98916666D01*
X25471428Y-98964285D01*
X25423809Y-99011904D01*
X25376190Y-99107142D01*
X25328571Y-99297619D01*
X25280952Y-99392857D01*
X25233333Y-99440476D01*
X25138095Y-99488095D01*
X25042857Y-99488095D01*
X24947619Y-99440476D01*
X24900000Y-99392857D01*
X24852380Y-99297619D01*
X24852380Y-99059523D01*
X24900000Y-98916666D01*
X25852380Y-98345238D02*
X25804761Y-98440476D01*
X25757142Y-98488095D01*
X25661904Y-98535714D01*
X25376190Y-98535714D01*
X25280952Y-98488095D01*
X25233333Y-98440476D01*
X25185714Y-98345238D01*
X25185714Y-98202380D01*
X25233333Y-98107142D01*
X25280952Y-98059523D01*
X25376190Y-98011904D01*
X25661904Y-98011904D01*
X25757142Y-98059523D01*
X25804761Y-98107142D01*
X25852380Y-98202380D01*
X25852380Y-98345238D01*
X25852380Y-97440476D02*
X25804761Y-97535714D01*
X25709523Y-97583333D01*
X24852380Y-97583333D01*
X25852380Y-96630952D02*
X25328571Y-96630952D01*
X25233333Y-96678571D01*
X25185714Y-96773809D01*
X25185714Y-96964285D01*
X25233333Y-97059523D01*
X25804761Y-96630952D02*
X25852380Y-96726190D01*
X25852380Y-96964285D01*
X25804761Y-97059523D01*
X25709523Y-97107142D01*
X25614285Y-97107142D01*
X25519047Y-97059523D01*
X25471428Y-96964285D01*
X25471428Y-96726190D01*
X25423809Y-96630952D01*
X25852380Y-96154761D02*
X25185714Y-96154761D01*
X25376190Y-96154761D02*
X25280952Y-96107142D01*
X25233333Y-96059523D01*
X25185714Y-95964285D01*
X25185714Y-95869047D01*
X25852380Y-94773809D02*
X24852380Y-94773809D01*
X24852380Y-94392857D01*
X24900000Y-94297619D01*
X24947619Y-94250000D01*
X25042857Y-94202380D01*
X25185714Y-94202380D01*
X25280952Y-94250000D01*
X25328571Y-94297619D01*
X25376190Y-94392857D01*
X25376190Y-94773809D01*
X25852380Y-93345238D02*
X25328571Y-93345238D01*
X25233333Y-93392857D01*
X25185714Y-93488095D01*
X25185714Y-93678571D01*
X25233333Y-93773809D01*
X25804761Y-93345238D02*
X25852380Y-93440476D01*
X25852380Y-93678571D01*
X25804761Y-93773809D01*
X25709523Y-93821428D01*
X25614285Y-93821428D01*
X25519047Y-93773809D01*
X25471428Y-93678571D01*
X25471428Y-93440476D01*
X25423809Y-93345238D01*
X25185714Y-92869047D02*
X25852380Y-92869047D01*
X25280952Y-92869047D02*
X25233333Y-92821428D01*
X25185714Y-92726190D01*
X25185714Y-92583333D01*
X25233333Y-92488095D01*
X25328571Y-92440476D01*
X25852380Y-92440476D01*
X25804761Y-91583333D02*
X25852380Y-91678571D01*
X25852380Y-91869047D01*
X25804761Y-91964285D01*
X25709523Y-92011904D01*
X25328571Y-92011904D01*
X25233333Y-91964285D01*
X25185714Y-91869047D01*
X25185714Y-91678571D01*
X25233333Y-91583333D01*
X25328571Y-91535714D01*
X25423809Y-91535714D01*
X25519047Y-92011904D01*
X25852380Y-90964285D02*
X25804761Y-91059523D01*
X25709523Y-91107142D01*
X24852380Y-91107142D01*
X25804761Y-128213333D02*
X25852380Y-128070476D01*
X25852380Y-127832380D01*
X25804761Y-127737142D01*
X25757142Y-127689523D01*
X25661904Y-127641904D01*
X25566666Y-127641904D01*
X25471428Y-127689523D01*
X25423809Y-127737142D01*
X25376190Y-127832380D01*
X25328571Y-128022857D01*
X25280952Y-128118095D01*
X25233333Y-128165714D01*
X25138095Y-128213333D01*
X25042857Y-128213333D01*
X24947619Y-128165714D01*
X24900000Y-128118095D01*
X24852380Y-128022857D01*
X24852380Y-127784761D01*
X24900000Y-127641904D01*
X25852380Y-127070476D02*
X25804761Y-127165714D01*
X25757142Y-127213333D01*
X25661904Y-127260952D01*
X25376190Y-127260952D01*
X25280952Y-127213333D01*
X25233333Y-127165714D01*
X25185714Y-127070476D01*
X25185714Y-126927619D01*
X25233333Y-126832380D01*
X25280952Y-126784761D01*
X25376190Y-126737142D01*
X25661904Y-126737142D01*
X25757142Y-126784761D01*
X25804761Y-126832380D01*
X25852380Y-126927619D01*
X25852380Y-127070476D01*
X25852380Y-126165714D02*
X25804761Y-126260952D01*
X25709523Y-126308571D01*
X24852380Y-126308571D01*
X25852380Y-125356190D02*
X25328571Y-125356190D01*
X25233333Y-125403809D01*
X25185714Y-125499047D01*
X25185714Y-125689523D01*
X25233333Y-125784761D01*
X25804761Y-125356190D02*
X25852380Y-125451428D01*
X25852380Y-125689523D01*
X25804761Y-125784761D01*
X25709523Y-125832380D01*
X25614285Y-125832380D01*
X25519047Y-125784761D01*
X25471428Y-125689523D01*
X25471428Y-125451428D01*
X25423809Y-125356190D01*
X25852380Y-124880000D02*
X25185714Y-124880000D01*
X25376190Y-124880000D02*
X25280952Y-124832380D01*
X25233333Y-124784761D01*
X25185714Y-124689523D01*
X25185714Y-124594285D01*
X25757142Y-122927619D02*
X25804761Y-122975238D01*
X25852380Y-123118095D01*
X25852380Y-123213333D01*
X25804761Y-123356190D01*
X25709523Y-123451428D01*
X25614285Y-123499047D01*
X25423809Y-123546666D01*
X25280952Y-123546666D01*
X25090476Y-123499047D01*
X24995238Y-123451428D01*
X24900000Y-123356190D01*
X24852380Y-123213333D01*
X24852380Y-123118095D01*
X24900000Y-122975238D01*
X24947619Y-122927619D01*
X25852380Y-122499047D02*
X24852380Y-122499047D01*
X25852380Y-122070476D02*
X25328571Y-122070476D01*
X25233333Y-122118095D01*
X25185714Y-122213333D01*
X25185714Y-122356190D01*
X25233333Y-122451428D01*
X25280952Y-122499047D01*
X25852380Y-121165714D02*
X25328571Y-121165714D01*
X25233333Y-121213333D01*
X25185714Y-121308571D01*
X25185714Y-121499047D01*
X25233333Y-121594285D01*
X25804761Y-121165714D02*
X25852380Y-121260952D01*
X25852380Y-121499047D01*
X25804761Y-121594285D01*
X25709523Y-121641904D01*
X25614285Y-121641904D01*
X25519047Y-121594285D01*
X25471428Y-121499047D01*
X25471428Y-121260952D01*
X25423809Y-121165714D01*
X25852380Y-120689523D02*
X25185714Y-120689523D01*
X25376190Y-120689523D02*
X25280952Y-120641904D01*
X25233333Y-120594285D01*
X25185714Y-120499047D01*
X25185714Y-120403809D01*
X25185714Y-119641904D02*
X25995238Y-119641904D01*
X26090476Y-119689523D01*
X26138095Y-119737142D01*
X26185714Y-119832380D01*
X26185714Y-119975238D01*
X26138095Y-120070476D01*
X25804761Y-119641904D02*
X25852380Y-119737142D01*
X25852380Y-119927619D01*
X25804761Y-120022857D01*
X25757142Y-120070476D01*
X25661904Y-120118095D01*
X25376190Y-120118095D01*
X25280952Y-120070476D01*
X25233333Y-120022857D01*
X25185714Y-119927619D01*
X25185714Y-119737142D01*
X25233333Y-119641904D01*
X25804761Y-118784761D02*
X25852380Y-118880000D01*
X25852380Y-119070476D01*
X25804761Y-119165714D01*
X25709523Y-119213333D01*
X25328571Y-119213333D01*
X25233333Y-119165714D01*
X25185714Y-119070476D01*
X25185714Y-118880000D01*
X25233333Y-118784761D01*
X25328571Y-118737142D01*
X25423809Y-118737142D01*
X25519047Y-119213333D01*
X25757142Y-116975238D02*
X25804761Y-117022857D01*
X25852380Y-117165714D01*
X25852380Y-117260952D01*
X25804761Y-117403809D01*
X25709523Y-117499047D01*
X25614285Y-117546666D01*
X25423809Y-117594285D01*
X25280952Y-117594285D01*
X25090476Y-117546666D01*
X24995238Y-117499047D01*
X24900000Y-117403809D01*
X24852380Y-117260952D01*
X24852380Y-117165714D01*
X24900000Y-117022857D01*
X24947619Y-116975238D01*
X25852380Y-116403809D02*
X25804761Y-116499047D01*
X25757142Y-116546666D01*
X25661904Y-116594285D01*
X25376190Y-116594285D01*
X25280952Y-116546666D01*
X25233333Y-116499047D01*
X25185714Y-116403809D01*
X25185714Y-116260952D01*
X25233333Y-116165714D01*
X25280952Y-116118095D01*
X25376190Y-116070476D01*
X25661904Y-116070476D01*
X25757142Y-116118095D01*
X25804761Y-116165714D01*
X25852380Y-116260952D01*
X25852380Y-116403809D01*
X25185714Y-115641904D02*
X25852380Y-115641904D01*
X25280952Y-115641904D02*
X25233333Y-115594285D01*
X25185714Y-115499047D01*
X25185714Y-115356190D01*
X25233333Y-115260952D01*
X25328571Y-115213333D01*
X25852380Y-115213333D01*
X25185714Y-114880000D02*
X25185714Y-114499047D01*
X24852380Y-114737142D02*
X25709523Y-114737142D01*
X25804761Y-114689523D01*
X25852380Y-114594285D01*
X25852380Y-114499047D01*
X25852380Y-114165714D02*
X25185714Y-114165714D01*
X25376190Y-114165714D02*
X25280952Y-114118095D01*
X25233333Y-114070476D01*
X25185714Y-113975238D01*
X25185714Y-113880000D01*
X25852380Y-113403809D02*
X25804761Y-113499047D01*
X25757142Y-113546666D01*
X25661904Y-113594285D01*
X25376190Y-113594285D01*
X25280952Y-113546666D01*
X25233333Y-113499047D01*
X25185714Y-113403809D01*
X25185714Y-113260952D01*
X25233333Y-113165714D01*
X25280952Y-113118095D01*
X25376190Y-113070476D01*
X25661904Y-113070476D01*
X25757142Y-113118095D01*
X25804761Y-113165714D01*
X25852380Y-113260952D01*
X25852380Y-113403809D01*
X25852380Y-112499047D02*
X25804761Y-112594285D01*
X25709523Y-112641904D01*
X24852380Y-112641904D01*
X25852380Y-111975238D02*
X25804761Y-112070476D01*
X25709523Y-112118095D01*
X24852380Y-112118095D01*
X25804761Y-111213333D02*
X25852380Y-111308571D01*
X25852380Y-111499047D01*
X25804761Y-111594285D01*
X25709523Y-111641904D01*
X25328571Y-111641904D01*
X25233333Y-111594285D01*
X25185714Y-111499047D01*
X25185714Y-111308571D01*
X25233333Y-111213333D01*
X25328571Y-111165714D01*
X25423809Y-111165714D01*
X25519047Y-111641904D01*
X25852380Y-110737142D02*
X25185714Y-110737142D01*
X25376190Y-110737142D02*
X25280952Y-110689523D01*
X25233333Y-110641904D01*
X25185714Y-110546666D01*
X25185714Y-110451428D01*
X66953333Y-137882380D02*
X66477142Y-137882380D01*
X66429523Y-138358571D01*
X66477142Y-138310952D01*
X66572380Y-138263333D01*
X66810476Y-138263333D01*
X66905714Y-138310952D01*
X66953333Y-138358571D01*
X67000952Y-138453809D01*
X67000952Y-138691904D01*
X66953333Y-138787142D01*
X66905714Y-138834761D01*
X66810476Y-138882380D01*
X66572380Y-138882380D01*
X66477142Y-138834761D01*
X66429523Y-138787142D01*
X67286666Y-137882380D02*
X67620000Y-138882380D01*
X67953333Y-137882380D01*
X69620000Y-138882380D02*
X69286666Y-138406190D01*
X69048571Y-138882380D02*
X69048571Y-137882380D01*
X69429523Y-137882380D01*
X69524761Y-137930000D01*
X69572380Y-137977619D01*
X69620000Y-138072857D01*
X69620000Y-138215714D01*
X69572380Y-138310952D01*
X69524761Y-138358571D01*
X69429523Y-138406190D01*
X69048571Y-138406190D01*
X70429523Y-138834761D02*
X70334285Y-138882380D01*
X70143809Y-138882380D01*
X70048571Y-138834761D01*
X70000952Y-138739523D01*
X70000952Y-138358571D01*
X70048571Y-138263333D01*
X70143809Y-138215714D01*
X70334285Y-138215714D01*
X70429523Y-138263333D01*
X70477142Y-138358571D01*
X70477142Y-138453809D01*
X70000952Y-138549047D01*
X71334285Y-138215714D02*
X71334285Y-139025238D01*
X71286666Y-139120476D01*
X71239047Y-139168095D01*
X71143809Y-139215714D01*
X71000952Y-139215714D01*
X70905714Y-139168095D01*
X71334285Y-138834761D02*
X71239047Y-138882380D01*
X71048571Y-138882380D01*
X70953333Y-138834761D01*
X70905714Y-138787142D01*
X70858095Y-138691904D01*
X70858095Y-138406190D01*
X70905714Y-138310952D01*
X70953333Y-138263333D01*
X71048571Y-138215714D01*
X71239047Y-138215714D01*
X71334285Y-138263333D01*
X72239047Y-138215714D02*
X72239047Y-138882380D01*
X71810476Y-138215714D02*
X71810476Y-138739523D01*
X71858095Y-138834761D01*
X71953333Y-138882380D01*
X72096190Y-138882380D01*
X72191428Y-138834761D01*
X72239047Y-138787142D01*
X72858095Y-138882380D02*
X72762857Y-138834761D01*
X72715238Y-138739523D01*
X72715238Y-137882380D01*
X73667619Y-138882380D02*
X73667619Y-138358571D01*
X73620000Y-138263333D01*
X73524761Y-138215714D01*
X73334285Y-138215714D01*
X73239047Y-138263333D01*
X73667619Y-138834761D02*
X73572380Y-138882380D01*
X73334285Y-138882380D01*
X73239047Y-138834761D01*
X73191428Y-138739523D01*
X73191428Y-138644285D01*
X73239047Y-138549047D01*
X73334285Y-138501428D01*
X73572380Y-138501428D01*
X73667619Y-138453809D01*
X74000952Y-138215714D02*
X74381904Y-138215714D01*
X74143809Y-137882380D02*
X74143809Y-138739523D01*
X74191428Y-138834761D01*
X74286666Y-138882380D01*
X74381904Y-138882380D01*
X74858095Y-138882380D02*
X74762857Y-138834761D01*
X74715238Y-138787142D01*
X74667619Y-138691904D01*
X74667619Y-138406190D01*
X74715238Y-138310952D01*
X74762857Y-138263333D01*
X74858095Y-138215714D01*
X75000952Y-138215714D01*
X75096190Y-138263333D01*
X75143809Y-138310952D01*
X75191428Y-138406190D01*
X75191428Y-138691904D01*
X75143809Y-138787142D01*
X75096190Y-138834761D01*
X75000952Y-138882380D01*
X74858095Y-138882380D01*
X75620000Y-138882380D02*
X75620000Y-138215714D01*
X75620000Y-138406190D02*
X75667619Y-138310952D01*
X75715238Y-138263333D01*
X75810476Y-138215714D01*
X75905714Y-138215714D01*
X66524761Y-109672380D02*
X66715238Y-109672380D01*
X66810476Y-109624761D01*
X66858095Y-109577142D01*
X66953333Y-109434285D01*
X67000952Y-109243809D01*
X67000952Y-108862857D01*
X66953333Y-108767619D01*
X66905714Y-108720000D01*
X66810476Y-108672380D01*
X66620000Y-108672380D01*
X66524761Y-108720000D01*
X66477142Y-108767619D01*
X66429523Y-108862857D01*
X66429523Y-109100952D01*
X66477142Y-109196190D01*
X66524761Y-109243809D01*
X66620000Y-109291428D01*
X66810476Y-109291428D01*
X66905714Y-109243809D01*
X66953333Y-109196190D01*
X67000952Y-109100952D01*
X67286666Y-108672380D02*
X67620000Y-109672380D01*
X67953333Y-108672380D01*
X69620000Y-109672380D02*
X69286666Y-109196190D01*
X69048571Y-109672380D02*
X69048571Y-108672380D01*
X69429523Y-108672380D01*
X69524761Y-108720000D01*
X69572380Y-108767619D01*
X69620000Y-108862857D01*
X69620000Y-109005714D01*
X69572380Y-109100952D01*
X69524761Y-109148571D01*
X69429523Y-109196190D01*
X69048571Y-109196190D01*
X70429523Y-109624761D02*
X70334285Y-109672380D01*
X70143809Y-109672380D01*
X70048571Y-109624761D01*
X70000952Y-109529523D01*
X70000952Y-109148571D01*
X70048571Y-109053333D01*
X70143809Y-109005714D01*
X70334285Y-109005714D01*
X70429523Y-109053333D01*
X70477142Y-109148571D01*
X70477142Y-109243809D01*
X70000952Y-109339047D01*
X71334285Y-109005714D02*
X71334285Y-109815238D01*
X71286666Y-109910476D01*
X71239047Y-109958095D01*
X71143809Y-110005714D01*
X71000952Y-110005714D01*
X70905714Y-109958095D01*
X71334285Y-109624761D02*
X71239047Y-109672380D01*
X71048571Y-109672380D01*
X70953333Y-109624761D01*
X70905714Y-109577142D01*
X70858095Y-109481904D01*
X70858095Y-109196190D01*
X70905714Y-109100952D01*
X70953333Y-109053333D01*
X71048571Y-109005714D01*
X71239047Y-109005714D01*
X71334285Y-109053333D01*
X72239047Y-109005714D02*
X72239047Y-109672380D01*
X71810476Y-109005714D02*
X71810476Y-109529523D01*
X71858095Y-109624761D01*
X71953333Y-109672380D01*
X72096190Y-109672380D01*
X72191428Y-109624761D01*
X72239047Y-109577142D01*
X72858095Y-109672380D02*
X72762857Y-109624761D01*
X72715238Y-109529523D01*
X72715238Y-108672380D01*
X73667619Y-109672380D02*
X73667619Y-109148571D01*
X73620000Y-109053333D01*
X73524761Y-109005714D01*
X73334285Y-109005714D01*
X73239047Y-109053333D01*
X73667619Y-109624761D02*
X73572380Y-109672380D01*
X73334285Y-109672380D01*
X73239047Y-109624761D01*
X73191428Y-109529523D01*
X73191428Y-109434285D01*
X73239047Y-109339047D01*
X73334285Y-109291428D01*
X73572380Y-109291428D01*
X73667619Y-109243809D01*
X74000952Y-109005714D02*
X74381904Y-109005714D01*
X74143809Y-108672380D02*
X74143809Y-109529523D01*
X74191428Y-109624761D01*
X74286666Y-109672380D01*
X74381904Y-109672380D01*
X74858095Y-109672380D02*
X74762857Y-109624761D01*
X74715238Y-109577142D01*
X74667619Y-109481904D01*
X74667619Y-109196190D01*
X74715238Y-109100952D01*
X74762857Y-109053333D01*
X74858095Y-109005714D01*
X75000952Y-109005714D01*
X75096190Y-109053333D01*
X75143809Y-109100952D01*
X75191428Y-109196190D01*
X75191428Y-109481904D01*
X75143809Y-109577142D01*
X75096190Y-109624761D01*
X75000952Y-109672380D01*
X74858095Y-109672380D01*
X75620000Y-109672380D02*
X75620000Y-109005714D01*
X75620000Y-109196190D02*
X75667619Y-109100952D01*
X75715238Y-109053333D01*
X75810476Y-109005714D01*
X75905714Y-109005714D01*
D11*
%TO.C,J4*%
X121980000Y-52010000D02*
X121980000Y-54610000D01*
X121980000Y-52010000D02*
X111700000Y-52010000D01*
X111700000Y-52010000D02*
X111700000Y-57210000D01*
X119380000Y-57210000D02*
X111700000Y-57210000D01*
X119380000Y-54610000D02*
X119380000Y-57210000D01*
X121980000Y-54610000D02*
X119380000Y-54610000D01*
X121980000Y-57210000D02*
X120650000Y-57210000D01*
X121980000Y-55880000D02*
X121980000Y-57210000D01*
%TO.C,A1*%
X62480000Y-94110000D02*
X95250000Y-94110000D01*
X95250000Y-94110000D02*
X97790000Y-91570000D01*
X97790000Y-91570000D02*
X100460000Y-91570000D01*
X100460000Y-91570000D02*
X100460000Y-25270000D01*
X100460000Y-25270000D02*
X97280000Y-25270000D01*
X97280000Y-25270000D02*
X97280000Y-23370000D01*
X97280000Y-23370000D02*
X88140000Y-23370000D01*
X88140000Y-23370000D02*
X88140000Y-25270000D01*
X88140000Y-25270000D02*
X68070000Y-25270000D01*
X68070000Y-25270000D02*
X68070000Y-18920000D01*
X68070000Y-18920000D02*
X56390000Y-18920000D01*
X56390000Y-18920000D02*
X56390000Y-25270000D01*
X56390000Y-25270000D02*
X46860000Y-25270000D01*
X46860000Y-25270000D02*
X46860000Y-89920000D01*
X46860000Y-89920000D02*
X48510000Y-91570000D01*
X48510000Y-91570000D02*
X59940000Y-91570000D01*
X59940000Y-91570000D02*
X62480000Y-94110000D01*
%TO.C,J9*%
X130750000Y-105350000D02*
X130750000Y-108010000D01*
X135890000Y-105350000D02*
X130750000Y-105350000D01*
X135890000Y-108010000D02*
X130750000Y-108010000D01*
X135890000Y-105350000D02*
X135890000Y-108010000D01*
X137160000Y-105350000D02*
X138490000Y-105350000D01*
X138490000Y-105350000D02*
X138490000Y-106680000D01*
%TO.C,TP10*%
X126160000Y-106680000D02*
G75*
G03*
X126160000Y-106680000I-1700000J0D01*
G01*
%TO.C,C1*%
X59255000Y-113610354D02*
X58255000Y-113610354D01*
X58755000Y-113110354D02*
X58755000Y-114110354D01*
X56479000Y-123671000D02*
X55281000Y-123671000D01*
X56742000Y-123631000D02*
X55018000Y-123631000D01*
X56942000Y-123591000D02*
X54818000Y-123591000D01*
X57110000Y-123551000D02*
X54650000Y-123551000D01*
X57258000Y-123511000D02*
X54502000Y-123511000D01*
X57390000Y-123471000D02*
X54370000Y-123471000D01*
X57510000Y-123431000D02*
X54250000Y-123431000D01*
X57622000Y-123391000D02*
X54138000Y-123391000D01*
X57726000Y-123351000D02*
X54034000Y-123351000D01*
X57824000Y-123311000D02*
X53936000Y-123311000D01*
X57917000Y-123271000D02*
X53843000Y-123271000D01*
X58005000Y-123231000D02*
X53755000Y-123231000D01*
X58089000Y-123191000D02*
X53671000Y-123191000D01*
X58169000Y-123151000D02*
X53591000Y-123151000D01*
X58245000Y-123111000D02*
X53515000Y-123111000D01*
X58319000Y-123071000D02*
X53441000Y-123071000D01*
X58390000Y-123031000D02*
X53370000Y-123031000D01*
X58459000Y-122991000D02*
X53301000Y-122991000D01*
X58525000Y-122951000D02*
X53235000Y-122951000D01*
X58589000Y-122911000D02*
X53171000Y-122911000D01*
X58650000Y-122871000D02*
X53110000Y-122871000D01*
X58710000Y-122831000D02*
X53050000Y-122831000D01*
X58769000Y-122791000D02*
X52991000Y-122791000D01*
X58825000Y-122751000D02*
X52935000Y-122751000D01*
X58880000Y-122711000D02*
X52880000Y-122711000D01*
X58934000Y-122671000D02*
X52826000Y-122671000D01*
X58986000Y-122631000D02*
X52774000Y-122631000D01*
X59036000Y-122591000D02*
X52724000Y-122591000D01*
X59086000Y-122551000D02*
X52674000Y-122551000D01*
X59134000Y-122511000D02*
X52626000Y-122511000D01*
X59181000Y-122471000D02*
X52579000Y-122471000D01*
X59227000Y-122431000D02*
X52533000Y-122431000D01*
X59272000Y-122391000D02*
X52488000Y-122391000D01*
X59316000Y-122351000D02*
X52444000Y-122351000D01*
X59358000Y-122311000D02*
X52402000Y-122311000D01*
X59400000Y-122271000D02*
X52360000Y-122271000D01*
X59441000Y-122231000D02*
X52319000Y-122231000D01*
X59481000Y-122191000D02*
X52279000Y-122191000D01*
X59520000Y-122151000D02*
X52240000Y-122151000D01*
X59559000Y-122111000D02*
X52201000Y-122111000D01*
X59596000Y-122071000D02*
X52164000Y-122071000D01*
X59633000Y-122031000D02*
X52127000Y-122031000D01*
X59669000Y-121991000D02*
X52091000Y-121991000D01*
X59704000Y-121951000D02*
X52056000Y-121951000D01*
X59738000Y-121911000D02*
X52022000Y-121911000D01*
X59772000Y-121871000D02*
X51988000Y-121871000D01*
X59805000Y-121831000D02*
X51955000Y-121831000D01*
X59837000Y-121791000D02*
X51923000Y-121791000D01*
X59869000Y-121751000D02*
X51891000Y-121751000D01*
X59900000Y-121711000D02*
X51860000Y-121711000D01*
X59930000Y-121671000D02*
X51830000Y-121671000D01*
X59960000Y-121631000D02*
X51800000Y-121631000D01*
X59990000Y-121591000D02*
X51770000Y-121591000D01*
X54639000Y-121551000D02*
X51742000Y-121551000D01*
X60018000Y-121551000D02*
X57121000Y-121551000D01*
X54639000Y-121511000D02*
X51714000Y-121511000D01*
X60046000Y-121511000D02*
X57121000Y-121511000D01*
X54639000Y-121471000D02*
X51686000Y-121471000D01*
X60074000Y-121471000D02*
X57121000Y-121471000D01*
X54639000Y-121431000D02*
X51659000Y-121431000D01*
X60101000Y-121431000D02*
X57121000Y-121431000D01*
X54639000Y-121391000D02*
X51633000Y-121391000D01*
X60127000Y-121391000D02*
X57121000Y-121391000D01*
X54639000Y-121351000D02*
X51607000Y-121351000D01*
X60153000Y-121351000D02*
X57121000Y-121351000D01*
X54639000Y-121311000D02*
X51582000Y-121311000D01*
X60178000Y-121311000D02*
X57121000Y-121311000D01*
X54639000Y-121271000D02*
X51557000Y-121271000D01*
X60203000Y-121271000D02*
X57121000Y-121271000D01*
X54639000Y-121231000D02*
X51533000Y-121231000D01*
X60227000Y-121231000D02*
X57121000Y-121231000D01*
X54639000Y-121191000D02*
X51509000Y-121191000D01*
X60251000Y-121191000D02*
X57121000Y-121191000D01*
X54639000Y-121151000D02*
X51485000Y-121151000D01*
X60275000Y-121151000D02*
X57121000Y-121151000D01*
X54639000Y-121111000D02*
X51463000Y-121111000D01*
X60297000Y-121111000D02*
X57121000Y-121111000D01*
X54639000Y-121071000D02*
X51440000Y-121071000D01*
X60320000Y-121071000D02*
X57121000Y-121071000D01*
X54639000Y-121031000D02*
X51418000Y-121031000D01*
X60342000Y-121031000D02*
X57121000Y-121031000D01*
X54639000Y-120991000D02*
X51397000Y-120991000D01*
X60363000Y-120991000D02*
X57121000Y-120991000D01*
X54639000Y-120951000D02*
X51376000Y-120951000D01*
X60384000Y-120951000D02*
X57121000Y-120951000D01*
X54639000Y-120911000D02*
X51355000Y-120911000D01*
X60405000Y-120911000D02*
X57121000Y-120911000D01*
X54639000Y-120871000D02*
X51335000Y-120871000D01*
X60425000Y-120871000D02*
X57121000Y-120871000D01*
X54639000Y-120831000D02*
X51316000Y-120831000D01*
X60444000Y-120831000D02*
X57121000Y-120831000D01*
X54639000Y-120791000D02*
X51296000Y-120791000D01*
X60464000Y-120791000D02*
X57121000Y-120791000D01*
X54639000Y-120751000D02*
X51277000Y-120751000D01*
X60483000Y-120751000D02*
X57121000Y-120751000D01*
X54639000Y-120711000D02*
X51259000Y-120711000D01*
X60501000Y-120711000D02*
X57121000Y-120711000D01*
X54639000Y-120671000D02*
X51241000Y-120671000D01*
X60519000Y-120671000D02*
X57121000Y-120671000D01*
X54639000Y-120631000D02*
X51223000Y-120631000D01*
X60537000Y-120631000D02*
X57121000Y-120631000D01*
X54639000Y-120591000D02*
X51206000Y-120591000D01*
X60554000Y-120591000D02*
X57121000Y-120591000D01*
X54639000Y-120551000D02*
X51190000Y-120551000D01*
X60570000Y-120551000D02*
X57121000Y-120551000D01*
X54639000Y-120511000D02*
X51173000Y-120511000D01*
X60587000Y-120511000D02*
X57121000Y-120511000D01*
X54639000Y-120471000D02*
X51157000Y-120471000D01*
X60603000Y-120471000D02*
X57121000Y-120471000D01*
X54639000Y-120431000D02*
X51142000Y-120431000D01*
X60618000Y-120431000D02*
X57121000Y-120431000D01*
X54639000Y-120391000D02*
X51126000Y-120391000D01*
X60634000Y-120391000D02*
X57121000Y-120391000D01*
X54639000Y-120351000D02*
X51112000Y-120351000D01*
X60648000Y-120351000D02*
X57121000Y-120351000D01*
X54639000Y-120311000D02*
X51097000Y-120311000D01*
X60663000Y-120311000D02*
X57121000Y-120311000D01*
X54639000Y-120271000D02*
X51083000Y-120271000D01*
X60677000Y-120271000D02*
X57121000Y-120271000D01*
X54639000Y-120231000D02*
X51069000Y-120231000D01*
X60691000Y-120231000D02*
X57121000Y-120231000D01*
X54639000Y-120191000D02*
X51056000Y-120191000D01*
X60704000Y-120191000D02*
X57121000Y-120191000D01*
X54639000Y-120151000D02*
X51043000Y-120151000D01*
X60717000Y-120151000D02*
X57121000Y-120151000D01*
X54639000Y-120111000D02*
X51030000Y-120111000D01*
X60730000Y-120111000D02*
X57121000Y-120111000D01*
X54639000Y-120071000D02*
X51018000Y-120071000D01*
X60742000Y-120071000D02*
X57121000Y-120071000D01*
X54639000Y-120031000D02*
X51006000Y-120031000D01*
X60754000Y-120031000D02*
X57121000Y-120031000D01*
X54639000Y-119991000D02*
X50995000Y-119991000D01*
X60765000Y-119991000D02*
X57121000Y-119991000D01*
X54639000Y-119951000D02*
X50983000Y-119951000D01*
X60777000Y-119951000D02*
X57121000Y-119951000D01*
X54639000Y-119911000D02*
X50973000Y-119911000D01*
X60787000Y-119911000D02*
X57121000Y-119911000D01*
X54639000Y-119871000D02*
X50962000Y-119871000D01*
X60798000Y-119871000D02*
X57121000Y-119871000D01*
X54639000Y-119831000D02*
X50952000Y-119831000D01*
X60808000Y-119831000D02*
X57121000Y-119831000D01*
X54639000Y-119791000D02*
X50942000Y-119791000D01*
X60818000Y-119791000D02*
X57121000Y-119791000D01*
X54639000Y-119751000D02*
X50933000Y-119751000D01*
X60827000Y-119751000D02*
X57121000Y-119751000D01*
X54639000Y-119711000D02*
X50924000Y-119711000D01*
X60836000Y-119711000D02*
X57121000Y-119711000D01*
X54639000Y-119671000D02*
X50915000Y-119671000D01*
X60845000Y-119671000D02*
X57121000Y-119671000D01*
X54639000Y-119631000D02*
X50906000Y-119631000D01*
X60854000Y-119631000D02*
X57121000Y-119631000D01*
X54639000Y-119591000D02*
X50898000Y-119591000D01*
X60862000Y-119591000D02*
X57121000Y-119591000D01*
X54639000Y-119551000D02*
X50890000Y-119551000D01*
X60870000Y-119551000D02*
X57121000Y-119551000D01*
X54639000Y-119511000D02*
X50883000Y-119511000D01*
X60877000Y-119511000D02*
X57121000Y-119511000D01*
X54639000Y-119471000D02*
X50876000Y-119471000D01*
X60884000Y-119471000D02*
X57121000Y-119471000D01*
X54639000Y-119431000D02*
X50869000Y-119431000D01*
X60891000Y-119431000D02*
X57121000Y-119431000D01*
X54639000Y-119391000D02*
X50862000Y-119391000D01*
X60898000Y-119391000D02*
X57121000Y-119391000D01*
X54639000Y-119351000D02*
X50856000Y-119351000D01*
X60904000Y-119351000D02*
X57121000Y-119351000D01*
X54639000Y-119311000D02*
X50850000Y-119311000D01*
X60910000Y-119311000D02*
X57121000Y-119311000D01*
X54639000Y-119270000D02*
X50845000Y-119270000D01*
X60915000Y-119270000D02*
X57121000Y-119270000D01*
X54639000Y-119230000D02*
X50840000Y-119230000D01*
X60920000Y-119230000D02*
X57121000Y-119230000D01*
X54639000Y-119190000D02*
X50835000Y-119190000D01*
X60925000Y-119190000D02*
X57121000Y-119190000D01*
X54639000Y-119150000D02*
X50830000Y-119150000D01*
X60930000Y-119150000D02*
X57121000Y-119150000D01*
X54639000Y-119110000D02*
X50826000Y-119110000D01*
X60934000Y-119110000D02*
X57121000Y-119110000D01*
X60938000Y-119070000D02*
X50822000Y-119070000D01*
X60942000Y-119030000D02*
X50818000Y-119030000D01*
X60945000Y-118990000D02*
X50815000Y-118990000D01*
X60948000Y-118950000D02*
X50812000Y-118950000D01*
X60950000Y-118910000D02*
X50810000Y-118910000D01*
X60953000Y-118870000D02*
X50807000Y-118870000D01*
X60955000Y-118830000D02*
X50805000Y-118830000D01*
X60957000Y-118790000D02*
X50803000Y-118790000D01*
X60958000Y-118750000D02*
X50802000Y-118750000D01*
X60959000Y-118710000D02*
X50801000Y-118710000D01*
X60960000Y-118670000D02*
X50800000Y-118670000D01*
X60960000Y-118630000D02*
X50800000Y-118630000D01*
X60960000Y-118590000D02*
X50800000Y-118590000D01*
X61000000Y-118590000D02*
G75*
G03*
X61000000Y-118590000I-5120000J0D01*
G01*
%TO.C,C2*%
X103045000Y-114080302D02*
X102245000Y-114080302D01*
X102645000Y-113680302D02*
X102645000Y-114480302D01*
X100863000Y-122171000D02*
X99797000Y-122171000D01*
X101098000Y-122131000D02*
X99562000Y-122131000D01*
X101278000Y-122091000D02*
X99382000Y-122091000D01*
X101428000Y-122051000D02*
X99232000Y-122051000D01*
X101559000Y-122011000D02*
X99101000Y-122011000D01*
X101676000Y-121971000D02*
X98984000Y-121971000D01*
X101783000Y-121931000D02*
X98877000Y-121931000D01*
X101882000Y-121891000D02*
X98778000Y-121891000D01*
X101975000Y-121851000D02*
X98685000Y-121851000D01*
X102061000Y-121811000D02*
X98599000Y-121811000D01*
X102143000Y-121771000D02*
X98517000Y-121771000D01*
X102220000Y-121731000D02*
X98440000Y-121731000D01*
X102294000Y-121691000D02*
X98366000Y-121691000D01*
X102364000Y-121651000D02*
X98296000Y-121651000D01*
X102432000Y-121611000D02*
X98228000Y-121611000D01*
X102496000Y-121571000D02*
X98164000Y-121571000D01*
X102558000Y-121531000D02*
X98102000Y-121531000D01*
X102617000Y-121491000D02*
X98043000Y-121491000D01*
X102675000Y-121451000D02*
X97985000Y-121451000D01*
X102730000Y-121411000D02*
X97930000Y-121411000D01*
X102784000Y-121371000D02*
X97876000Y-121371000D01*
X102835000Y-121331000D02*
X97825000Y-121331000D01*
X102886000Y-121291000D02*
X97774000Y-121291000D01*
X102934000Y-121251000D02*
X97726000Y-121251000D01*
X102981000Y-121211000D02*
X97679000Y-121211000D01*
X103027000Y-121171000D02*
X97633000Y-121171000D01*
X103071000Y-121131000D02*
X97589000Y-121131000D01*
X103114000Y-121091000D02*
X97546000Y-121091000D01*
X103156000Y-121051000D02*
X97504000Y-121051000D01*
X103197000Y-121011000D02*
X97463000Y-121011000D01*
X103237000Y-120971000D02*
X97423000Y-120971000D01*
X103275000Y-120931000D02*
X97385000Y-120931000D01*
X103313000Y-120891000D02*
X97347000Y-120891000D01*
X103349000Y-120851000D02*
X97311000Y-120851000D01*
X103385000Y-120811000D02*
X97275000Y-120811000D01*
X103420000Y-120771000D02*
X97240000Y-120771000D01*
X103454000Y-120731000D02*
X97206000Y-120731000D01*
X103486000Y-120691000D02*
X97174000Y-120691000D01*
X103519000Y-120651000D02*
X97141000Y-120651000D01*
X103550000Y-120611000D02*
X97110000Y-120611000D01*
X103580000Y-120571000D02*
X97080000Y-120571000D01*
X103610000Y-120531000D02*
X97050000Y-120531000D01*
X103639000Y-120491000D02*
X97021000Y-120491000D01*
X103668000Y-120451000D02*
X96992000Y-120451000D01*
X103695000Y-120411000D02*
X96965000Y-120411000D01*
X99290000Y-120371000D02*
X96938000Y-120371000D01*
X103722000Y-120371000D02*
X101370000Y-120371000D01*
X99290000Y-120331000D02*
X96912000Y-120331000D01*
X103748000Y-120331000D02*
X101370000Y-120331000D01*
X99290000Y-120291000D02*
X96886000Y-120291000D01*
X103774000Y-120291000D02*
X101370000Y-120291000D01*
X99290000Y-120251000D02*
X96861000Y-120251000D01*
X103799000Y-120251000D02*
X101370000Y-120251000D01*
X99290000Y-120211000D02*
X96837000Y-120211000D01*
X103823000Y-120211000D02*
X101370000Y-120211000D01*
X99290000Y-120171000D02*
X96813000Y-120171000D01*
X103847000Y-120171000D02*
X101370000Y-120171000D01*
X99290000Y-120131000D02*
X96790000Y-120131000D01*
X103870000Y-120131000D02*
X101370000Y-120131000D01*
X99290000Y-120091000D02*
X96768000Y-120091000D01*
X103892000Y-120091000D02*
X101370000Y-120091000D01*
X99290000Y-120051000D02*
X96746000Y-120051000D01*
X103914000Y-120051000D02*
X101370000Y-120051000D01*
X99290000Y-120011000D02*
X96724000Y-120011000D01*
X103936000Y-120011000D02*
X101370000Y-120011000D01*
X99290000Y-119971000D02*
X96703000Y-119971000D01*
X103957000Y-119971000D02*
X101370000Y-119971000D01*
X99290000Y-119931000D02*
X96683000Y-119931000D01*
X103977000Y-119931000D02*
X101370000Y-119931000D01*
X99290000Y-119891000D02*
X96664000Y-119891000D01*
X103996000Y-119891000D02*
X101370000Y-119891000D01*
X99290000Y-119851000D02*
X96644000Y-119851000D01*
X104016000Y-119851000D02*
X101370000Y-119851000D01*
X99290000Y-119811000D02*
X96626000Y-119811000D01*
X104034000Y-119811000D02*
X101370000Y-119811000D01*
X99290000Y-119771000D02*
X96608000Y-119771000D01*
X104052000Y-119771000D02*
X101370000Y-119771000D01*
X99290000Y-119731000D02*
X96590000Y-119731000D01*
X104070000Y-119731000D02*
X101370000Y-119731000D01*
X99290000Y-119691000D02*
X96573000Y-119691000D01*
X104087000Y-119691000D02*
X101370000Y-119691000D01*
X99290000Y-119651000D02*
X96556000Y-119651000D01*
X104104000Y-119651000D02*
X101370000Y-119651000D01*
X99290000Y-119611000D02*
X96540000Y-119611000D01*
X104120000Y-119611000D02*
X101370000Y-119611000D01*
X99290000Y-119571000D02*
X96525000Y-119571000D01*
X104135000Y-119571000D02*
X101370000Y-119571000D01*
X99290000Y-119531000D02*
X96509000Y-119531000D01*
X104151000Y-119531000D02*
X101370000Y-119531000D01*
X99290000Y-119491000D02*
X96495000Y-119491000D01*
X104165000Y-119491000D02*
X101370000Y-119491000D01*
X99290000Y-119451000D02*
X96480000Y-119451000D01*
X104180000Y-119451000D02*
X101370000Y-119451000D01*
X99290000Y-119411000D02*
X96467000Y-119411000D01*
X104193000Y-119411000D02*
X101370000Y-119411000D01*
X99290000Y-119371000D02*
X96453000Y-119371000D01*
X104207000Y-119371000D02*
X101370000Y-119371000D01*
X99290000Y-119331000D02*
X96441000Y-119331000D01*
X104219000Y-119331000D02*
X101370000Y-119331000D01*
X99290000Y-119291000D02*
X96428000Y-119291000D01*
X104232000Y-119291000D02*
X101370000Y-119291000D01*
X99290000Y-119251000D02*
X96416000Y-119251000D01*
X104244000Y-119251000D02*
X101370000Y-119251000D01*
X99290000Y-119211000D02*
X96405000Y-119211000D01*
X104255000Y-119211000D02*
X101370000Y-119211000D01*
X99290000Y-119171000D02*
X96394000Y-119171000D01*
X104266000Y-119171000D02*
X101370000Y-119171000D01*
X99290000Y-119131000D02*
X96383000Y-119131000D01*
X104277000Y-119131000D02*
X101370000Y-119131000D01*
X99290000Y-119091000D02*
X96373000Y-119091000D01*
X104287000Y-119091000D02*
X101370000Y-119091000D01*
X99290000Y-119051000D02*
X96363000Y-119051000D01*
X104297000Y-119051000D02*
X101370000Y-119051000D01*
X99290000Y-119011000D02*
X96354000Y-119011000D01*
X104306000Y-119011000D02*
X101370000Y-119011000D01*
X99290000Y-118971000D02*
X96345000Y-118971000D01*
X104315000Y-118971000D02*
X101370000Y-118971000D01*
X99290000Y-118931000D02*
X96336000Y-118931000D01*
X104324000Y-118931000D02*
X101370000Y-118931000D01*
X99290000Y-118891000D02*
X96328000Y-118891000D01*
X104332000Y-118891000D02*
X101370000Y-118891000D01*
X99290000Y-118851000D02*
X96320000Y-118851000D01*
X104340000Y-118851000D02*
X101370000Y-118851000D01*
X99290000Y-118811000D02*
X96313000Y-118811000D01*
X104347000Y-118811000D02*
X101370000Y-118811000D01*
X99290000Y-118770000D02*
X96306000Y-118770000D01*
X104354000Y-118770000D02*
X101370000Y-118770000D01*
X99290000Y-118730000D02*
X96300000Y-118730000D01*
X104360000Y-118730000D02*
X101370000Y-118730000D01*
X99290000Y-118690000D02*
X96293000Y-118690000D01*
X104367000Y-118690000D02*
X101370000Y-118690000D01*
X99290000Y-118650000D02*
X96288000Y-118650000D01*
X104372000Y-118650000D02*
X101370000Y-118650000D01*
X99290000Y-118610000D02*
X96282000Y-118610000D01*
X104378000Y-118610000D02*
X101370000Y-118610000D01*
X99290000Y-118570000D02*
X96278000Y-118570000D01*
X104382000Y-118570000D02*
X101370000Y-118570000D01*
X99290000Y-118530000D02*
X96273000Y-118530000D01*
X104387000Y-118530000D02*
X101370000Y-118530000D01*
X99290000Y-118490000D02*
X96269000Y-118490000D01*
X104391000Y-118490000D02*
X101370000Y-118490000D01*
X99290000Y-118450000D02*
X96265000Y-118450000D01*
X104395000Y-118450000D02*
X101370000Y-118450000D01*
X99290000Y-118410000D02*
X96262000Y-118410000D01*
X104398000Y-118410000D02*
X101370000Y-118410000D01*
X99290000Y-118370000D02*
X96259000Y-118370000D01*
X104401000Y-118370000D02*
X101370000Y-118370000D01*
X99290000Y-118330000D02*
X96256000Y-118330000D01*
X104404000Y-118330000D02*
X101370000Y-118330000D01*
X104406000Y-118290000D02*
X96254000Y-118290000D01*
X104407000Y-118250000D02*
X96253000Y-118250000D01*
X104409000Y-118210000D02*
X96251000Y-118210000D01*
X104410000Y-118170000D02*
X96250000Y-118170000D01*
X104410000Y-118130000D02*
X96250000Y-118130000D01*
X104410000Y-118090000D02*
X96250000Y-118090000D01*
X104450000Y-118090000D02*
G75*
G03*
X104450000Y-118090000I-4120000J0D01*
G01*
%TO.C,C3*%
X61000000Y-147800000D02*
G75*
G03*
X61000000Y-147800000I-5120000J0D01*
G01*
X60960000Y-147800000D02*
X50800000Y-147800000D01*
X60960000Y-147840000D02*
X50800000Y-147840000D01*
X60960000Y-147880000D02*
X50800000Y-147880000D01*
X60959000Y-147920000D02*
X50801000Y-147920000D01*
X60958000Y-147960000D02*
X50802000Y-147960000D01*
X60957000Y-148000000D02*
X50803000Y-148000000D01*
X60955000Y-148040000D02*
X50805000Y-148040000D01*
X60953000Y-148080000D02*
X50807000Y-148080000D01*
X60950000Y-148120000D02*
X50810000Y-148120000D01*
X60948000Y-148160000D02*
X50812000Y-148160000D01*
X60945000Y-148200000D02*
X50815000Y-148200000D01*
X60942000Y-148240000D02*
X50818000Y-148240000D01*
X60938000Y-148280000D02*
X50822000Y-148280000D01*
X60934000Y-148320000D02*
X57121000Y-148320000D01*
X54639000Y-148320000D02*
X50826000Y-148320000D01*
X60930000Y-148360000D02*
X57121000Y-148360000D01*
X54639000Y-148360000D02*
X50830000Y-148360000D01*
X60925000Y-148400000D02*
X57121000Y-148400000D01*
X54639000Y-148400000D02*
X50835000Y-148400000D01*
X60920000Y-148440000D02*
X57121000Y-148440000D01*
X54639000Y-148440000D02*
X50840000Y-148440000D01*
X60915000Y-148480000D02*
X57121000Y-148480000D01*
X54639000Y-148480000D02*
X50845000Y-148480000D01*
X60910000Y-148521000D02*
X57121000Y-148521000D01*
X54639000Y-148521000D02*
X50850000Y-148521000D01*
X60904000Y-148561000D02*
X57121000Y-148561000D01*
X54639000Y-148561000D02*
X50856000Y-148561000D01*
X60898000Y-148601000D02*
X57121000Y-148601000D01*
X54639000Y-148601000D02*
X50862000Y-148601000D01*
X60891000Y-148641000D02*
X57121000Y-148641000D01*
X54639000Y-148641000D02*
X50869000Y-148641000D01*
X60884000Y-148681000D02*
X57121000Y-148681000D01*
X54639000Y-148681000D02*
X50876000Y-148681000D01*
X60877000Y-148721000D02*
X57121000Y-148721000D01*
X54639000Y-148721000D02*
X50883000Y-148721000D01*
X60870000Y-148761000D02*
X57121000Y-148761000D01*
X54639000Y-148761000D02*
X50890000Y-148761000D01*
X60862000Y-148801000D02*
X57121000Y-148801000D01*
X54639000Y-148801000D02*
X50898000Y-148801000D01*
X60854000Y-148841000D02*
X57121000Y-148841000D01*
X54639000Y-148841000D02*
X50906000Y-148841000D01*
X60845000Y-148881000D02*
X57121000Y-148881000D01*
X54639000Y-148881000D02*
X50915000Y-148881000D01*
X60836000Y-148921000D02*
X57121000Y-148921000D01*
X54639000Y-148921000D02*
X50924000Y-148921000D01*
X60827000Y-148961000D02*
X57121000Y-148961000D01*
X54639000Y-148961000D02*
X50933000Y-148961000D01*
X60818000Y-149001000D02*
X57121000Y-149001000D01*
X54639000Y-149001000D02*
X50942000Y-149001000D01*
X60808000Y-149041000D02*
X57121000Y-149041000D01*
X54639000Y-149041000D02*
X50952000Y-149041000D01*
X60798000Y-149081000D02*
X57121000Y-149081000D01*
X54639000Y-149081000D02*
X50962000Y-149081000D01*
X60787000Y-149121000D02*
X57121000Y-149121000D01*
X54639000Y-149121000D02*
X50973000Y-149121000D01*
X60777000Y-149161000D02*
X57121000Y-149161000D01*
X54639000Y-149161000D02*
X50983000Y-149161000D01*
X60765000Y-149201000D02*
X57121000Y-149201000D01*
X54639000Y-149201000D02*
X50995000Y-149201000D01*
X60754000Y-149241000D02*
X57121000Y-149241000D01*
X54639000Y-149241000D02*
X51006000Y-149241000D01*
X60742000Y-149281000D02*
X57121000Y-149281000D01*
X54639000Y-149281000D02*
X51018000Y-149281000D01*
X60730000Y-149321000D02*
X57121000Y-149321000D01*
X54639000Y-149321000D02*
X51030000Y-149321000D01*
X60717000Y-149361000D02*
X57121000Y-149361000D01*
X54639000Y-149361000D02*
X51043000Y-149361000D01*
X60704000Y-149401000D02*
X57121000Y-149401000D01*
X54639000Y-149401000D02*
X51056000Y-149401000D01*
X60691000Y-149441000D02*
X57121000Y-149441000D01*
X54639000Y-149441000D02*
X51069000Y-149441000D01*
X60677000Y-149481000D02*
X57121000Y-149481000D01*
X54639000Y-149481000D02*
X51083000Y-149481000D01*
X60663000Y-149521000D02*
X57121000Y-149521000D01*
X54639000Y-149521000D02*
X51097000Y-149521000D01*
X60648000Y-149561000D02*
X57121000Y-149561000D01*
X54639000Y-149561000D02*
X51112000Y-149561000D01*
X60634000Y-149601000D02*
X57121000Y-149601000D01*
X54639000Y-149601000D02*
X51126000Y-149601000D01*
X60618000Y-149641000D02*
X57121000Y-149641000D01*
X54639000Y-149641000D02*
X51142000Y-149641000D01*
X60603000Y-149681000D02*
X57121000Y-149681000D01*
X54639000Y-149681000D02*
X51157000Y-149681000D01*
X60587000Y-149721000D02*
X57121000Y-149721000D01*
X54639000Y-149721000D02*
X51173000Y-149721000D01*
X60570000Y-149761000D02*
X57121000Y-149761000D01*
X54639000Y-149761000D02*
X51190000Y-149761000D01*
X60554000Y-149801000D02*
X57121000Y-149801000D01*
X54639000Y-149801000D02*
X51206000Y-149801000D01*
X60537000Y-149841000D02*
X57121000Y-149841000D01*
X54639000Y-149841000D02*
X51223000Y-149841000D01*
X60519000Y-149881000D02*
X57121000Y-149881000D01*
X54639000Y-149881000D02*
X51241000Y-149881000D01*
X60501000Y-149921000D02*
X57121000Y-149921000D01*
X54639000Y-149921000D02*
X51259000Y-149921000D01*
X60483000Y-149961000D02*
X57121000Y-149961000D01*
X54639000Y-149961000D02*
X51277000Y-149961000D01*
X60464000Y-150001000D02*
X57121000Y-150001000D01*
X54639000Y-150001000D02*
X51296000Y-150001000D01*
X60444000Y-150041000D02*
X57121000Y-150041000D01*
X54639000Y-150041000D02*
X51316000Y-150041000D01*
X60425000Y-150081000D02*
X57121000Y-150081000D01*
X54639000Y-150081000D02*
X51335000Y-150081000D01*
X60405000Y-150121000D02*
X57121000Y-150121000D01*
X54639000Y-150121000D02*
X51355000Y-150121000D01*
X60384000Y-150161000D02*
X57121000Y-150161000D01*
X54639000Y-150161000D02*
X51376000Y-150161000D01*
X60363000Y-150201000D02*
X57121000Y-150201000D01*
X54639000Y-150201000D02*
X51397000Y-150201000D01*
X60342000Y-150241000D02*
X57121000Y-150241000D01*
X54639000Y-150241000D02*
X51418000Y-150241000D01*
X60320000Y-150281000D02*
X57121000Y-150281000D01*
X54639000Y-150281000D02*
X51440000Y-150281000D01*
X60297000Y-150321000D02*
X57121000Y-150321000D01*
X54639000Y-150321000D02*
X51463000Y-150321000D01*
X60275000Y-150361000D02*
X57121000Y-150361000D01*
X54639000Y-150361000D02*
X51485000Y-150361000D01*
X60251000Y-150401000D02*
X57121000Y-150401000D01*
X54639000Y-150401000D02*
X51509000Y-150401000D01*
X60227000Y-150441000D02*
X57121000Y-150441000D01*
X54639000Y-150441000D02*
X51533000Y-150441000D01*
X60203000Y-150481000D02*
X57121000Y-150481000D01*
X54639000Y-150481000D02*
X51557000Y-150481000D01*
X60178000Y-150521000D02*
X57121000Y-150521000D01*
X54639000Y-150521000D02*
X51582000Y-150521000D01*
X60153000Y-150561000D02*
X57121000Y-150561000D01*
X54639000Y-150561000D02*
X51607000Y-150561000D01*
X60127000Y-150601000D02*
X57121000Y-150601000D01*
X54639000Y-150601000D02*
X51633000Y-150601000D01*
X60101000Y-150641000D02*
X57121000Y-150641000D01*
X54639000Y-150641000D02*
X51659000Y-150641000D01*
X60074000Y-150681000D02*
X57121000Y-150681000D01*
X54639000Y-150681000D02*
X51686000Y-150681000D01*
X60046000Y-150721000D02*
X57121000Y-150721000D01*
X54639000Y-150721000D02*
X51714000Y-150721000D01*
X60018000Y-150761000D02*
X57121000Y-150761000D01*
X54639000Y-150761000D02*
X51742000Y-150761000D01*
X59990000Y-150801000D02*
X51770000Y-150801000D01*
X59960000Y-150841000D02*
X51800000Y-150841000D01*
X59930000Y-150881000D02*
X51830000Y-150881000D01*
X59900000Y-150921000D02*
X51860000Y-150921000D01*
X59869000Y-150961000D02*
X51891000Y-150961000D01*
X59837000Y-151001000D02*
X51923000Y-151001000D01*
X59805000Y-151041000D02*
X51955000Y-151041000D01*
X59772000Y-151081000D02*
X51988000Y-151081000D01*
X59738000Y-151121000D02*
X52022000Y-151121000D01*
X59704000Y-151161000D02*
X52056000Y-151161000D01*
X59669000Y-151201000D02*
X52091000Y-151201000D01*
X59633000Y-151241000D02*
X52127000Y-151241000D01*
X59596000Y-151281000D02*
X52164000Y-151281000D01*
X59559000Y-151321000D02*
X52201000Y-151321000D01*
X59520000Y-151361000D02*
X52240000Y-151361000D01*
X59481000Y-151401000D02*
X52279000Y-151401000D01*
X59441000Y-151441000D02*
X52319000Y-151441000D01*
X59400000Y-151481000D02*
X52360000Y-151481000D01*
X59358000Y-151521000D02*
X52402000Y-151521000D01*
X59316000Y-151561000D02*
X52444000Y-151561000D01*
X59272000Y-151601000D02*
X52488000Y-151601000D01*
X59227000Y-151641000D02*
X52533000Y-151641000D01*
X59181000Y-151681000D02*
X52579000Y-151681000D01*
X59134000Y-151721000D02*
X52626000Y-151721000D01*
X59086000Y-151761000D02*
X52674000Y-151761000D01*
X59036000Y-151801000D02*
X52724000Y-151801000D01*
X58986000Y-151841000D02*
X52774000Y-151841000D01*
X58934000Y-151881000D02*
X52826000Y-151881000D01*
X58880000Y-151921000D02*
X52880000Y-151921000D01*
X58825000Y-151961000D02*
X52935000Y-151961000D01*
X58769000Y-152001000D02*
X52991000Y-152001000D01*
X58710000Y-152041000D02*
X53050000Y-152041000D01*
X58650000Y-152081000D02*
X53110000Y-152081000D01*
X58589000Y-152121000D02*
X53171000Y-152121000D01*
X58525000Y-152161000D02*
X53235000Y-152161000D01*
X58459000Y-152201000D02*
X53301000Y-152201000D01*
X58390000Y-152241000D02*
X53370000Y-152241000D01*
X58319000Y-152281000D02*
X53441000Y-152281000D01*
X58245000Y-152321000D02*
X53515000Y-152321000D01*
X58169000Y-152361000D02*
X53591000Y-152361000D01*
X58089000Y-152401000D02*
X53671000Y-152401000D01*
X58005000Y-152441000D02*
X53755000Y-152441000D01*
X57917000Y-152481000D02*
X53843000Y-152481000D01*
X57824000Y-152521000D02*
X53936000Y-152521000D01*
X57726000Y-152561000D02*
X54034000Y-152561000D01*
X57622000Y-152601000D02*
X54138000Y-152601000D01*
X57510000Y-152641000D02*
X54250000Y-152641000D01*
X57390000Y-152681000D02*
X54370000Y-152681000D01*
X57258000Y-152721000D02*
X54502000Y-152721000D01*
X57110000Y-152761000D02*
X54650000Y-152761000D01*
X56942000Y-152801000D02*
X54818000Y-152801000D01*
X56742000Y-152841000D02*
X55018000Y-152841000D01*
X56479000Y-152881000D02*
X55281000Y-152881000D01*
X58755000Y-142320354D02*
X58755000Y-143320354D01*
X59255000Y-142820354D02*
X58255000Y-142820354D01*
%TO.C,C4*%
X104450000Y-147340000D02*
G75*
G03*
X104450000Y-147340000I-4120000J0D01*
G01*
X104410000Y-147340000D02*
X96250000Y-147340000D01*
X104410000Y-147380000D02*
X96250000Y-147380000D01*
X104410000Y-147420000D02*
X96250000Y-147420000D01*
X104409000Y-147460000D02*
X96251000Y-147460000D01*
X104407000Y-147500000D02*
X96253000Y-147500000D01*
X104406000Y-147540000D02*
X96254000Y-147540000D01*
X104404000Y-147580000D02*
X101370000Y-147580000D01*
X99290000Y-147580000D02*
X96256000Y-147580000D01*
X104401000Y-147620000D02*
X101370000Y-147620000D01*
X99290000Y-147620000D02*
X96259000Y-147620000D01*
X104398000Y-147660000D02*
X101370000Y-147660000D01*
X99290000Y-147660000D02*
X96262000Y-147660000D01*
X104395000Y-147700000D02*
X101370000Y-147700000D01*
X99290000Y-147700000D02*
X96265000Y-147700000D01*
X104391000Y-147740000D02*
X101370000Y-147740000D01*
X99290000Y-147740000D02*
X96269000Y-147740000D01*
X104387000Y-147780000D02*
X101370000Y-147780000D01*
X99290000Y-147780000D02*
X96273000Y-147780000D01*
X104382000Y-147820000D02*
X101370000Y-147820000D01*
X99290000Y-147820000D02*
X96278000Y-147820000D01*
X104378000Y-147860000D02*
X101370000Y-147860000D01*
X99290000Y-147860000D02*
X96282000Y-147860000D01*
X104372000Y-147900000D02*
X101370000Y-147900000D01*
X99290000Y-147900000D02*
X96288000Y-147900000D01*
X104367000Y-147940000D02*
X101370000Y-147940000D01*
X99290000Y-147940000D02*
X96293000Y-147940000D01*
X104360000Y-147980000D02*
X101370000Y-147980000D01*
X99290000Y-147980000D02*
X96300000Y-147980000D01*
X104354000Y-148020000D02*
X101370000Y-148020000D01*
X99290000Y-148020000D02*
X96306000Y-148020000D01*
X104347000Y-148061000D02*
X101370000Y-148061000D01*
X99290000Y-148061000D02*
X96313000Y-148061000D01*
X104340000Y-148101000D02*
X101370000Y-148101000D01*
X99290000Y-148101000D02*
X96320000Y-148101000D01*
X104332000Y-148141000D02*
X101370000Y-148141000D01*
X99290000Y-148141000D02*
X96328000Y-148141000D01*
X104324000Y-148181000D02*
X101370000Y-148181000D01*
X99290000Y-148181000D02*
X96336000Y-148181000D01*
X104315000Y-148221000D02*
X101370000Y-148221000D01*
X99290000Y-148221000D02*
X96345000Y-148221000D01*
X104306000Y-148261000D02*
X101370000Y-148261000D01*
X99290000Y-148261000D02*
X96354000Y-148261000D01*
X104297000Y-148301000D02*
X101370000Y-148301000D01*
X99290000Y-148301000D02*
X96363000Y-148301000D01*
X104287000Y-148341000D02*
X101370000Y-148341000D01*
X99290000Y-148341000D02*
X96373000Y-148341000D01*
X104277000Y-148381000D02*
X101370000Y-148381000D01*
X99290000Y-148381000D02*
X96383000Y-148381000D01*
X104266000Y-148421000D02*
X101370000Y-148421000D01*
X99290000Y-148421000D02*
X96394000Y-148421000D01*
X104255000Y-148461000D02*
X101370000Y-148461000D01*
X99290000Y-148461000D02*
X96405000Y-148461000D01*
X104244000Y-148501000D02*
X101370000Y-148501000D01*
X99290000Y-148501000D02*
X96416000Y-148501000D01*
X104232000Y-148541000D02*
X101370000Y-148541000D01*
X99290000Y-148541000D02*
X96428000Y-148541000D01*
X104219000Y-148581000D02*
X101370000Y-148581000D01*
X99290000Y-148581000D02*
X96441000Y-148581000D01*
X104207000Y-148621000D02*
X101370000Y-148621000D01*
X99290000Y-148621000D02*
X96453000Y-148621000D01*
X104193000Y-148661000D02*
X101370000Y-148661000D01*
X99290000Y-148661000D02*
X96467000Y-148661000D01*
X104180000Y-148701000D02*
X101370000Y-148701000D01*
X99290000Y-148701000D02*
X96480000Y-148701000D01*
X104165000Y-148741000D02*
X101370000Y-148741000D01*
X99290000Y-148741000D02*
X96495000Y-148741000D01*
X104151000Y-148781000D02*
X101370000Y-148781000D01*
X99290000Y-148781000D02*
X96509000Y-148781000D01*
X104135000Y-148821000D02*
X101370000Y-148821000D01*
X99290000Y-148821000D02*
X96525000Y-148821000D01*
X104120000Y-148861000D02*
X101370000Y-148861000D01*
X99290000Y-148861000D02*
X96540000Y-148861000D01*
X104104000Y-148901000D02*
X101370000Y-148901000D01*
X99290000Y-148901000D02*
X96556000Y-148901000D01*
X104087000Y-148941000D02*
X101370000Y-148941000D01*
X99290000Y-148941000D02*
X96573000Y-148941000D01*
X104070000Y-148981000D02*
X101370000Y-148981000D01*
X99290000Y-148981000D02*
X96590000Y-148981000D01*
X104052000Y-149021000D02*
X101370000Y-149021000D01*
X99290000Y-149021000D02*
X96608000Y-149021000D01*
X104034000Y-149061000D02*
X101370000Y-149061000D01*
X99290000Y-149061000D02*
X96626000Y-149061000D01*
X104016000Y-149101000D02*
X101370000Y-149101000D01*
X99290000Y-149101000D02*
X96644000Y-149101000D01*
X103996000Y-149141000D02*
X101370000Y-149141000D01*
X99290000Y-149141000D02*
X96664000Y-149141000D01*
X103977000Y-149181000D02*
X101370000Y-149181000D01*
X99290000Y-149181000D02*
X96683000Y-149181000D01*
X103957000Y-149221000D02*
X101370000Y-149221000D01*
X99290000Y-149221000D02*
X96703000Y-149221000D01*
X103936000Y-149261000D02*
X101370000Y-149261000D01*
X99290000Y-149261000D02*
X96724000Y-149261000D01*
X103914000Y-149301000D02*
X101370000Y-149301000D01*
X99290000Y-149301000D02*
X96746000Y-149301000D01*
X103892000Y-149341000D02*
X101370000Y-149341000D01*
X99290000Y-149341000D02*
X96768000Y-149341000D01*
X103870000Y-149381000D02*
X101370000Y-149381000D01*
X99290000Y-149381000D02*
X96790000Y-149381000D01*
X103847000Y-149421000D02*
X101370000Y-149421000D01*
X99290000Y-149421000D02*
X96813000Y-149421000D01*
X103823000Y-149461000D02*
X101370000Y-149461000D01*
X99290000Y-149461000D02*
X96837000Y-149461000D01*
X103799000Y-149501000D02*
X101370000Y-149501000D01*
X99290000Y-149501000D02*
X96861000Y-149501000D01*
X103774000Y-149541000D02*
X101370000Y-149541000D01*
X99290000Y-149541000D02*
X96886000Y-149541000D01*
X103748000Y-149581000D02*
X101370000Y-149581000D01*
X99290000Y-149581000D02*
X96912000Y-149581000D01*
X103722000Y-149621000D02*
X101370000Y-149621000D01*
X99290000Y-149621000D02*
X96938000Y-149621000D01*
X103695000Y-149661000D02*
X96965000Y-149661000D01*
X103668000Y-149701000D02*
X96992000Y-149701000D01*
X103639000Y-149741000D02*
X97021000Y-149741000D01*
X103610000Y-149781000D02*
X97050000Y-149781000D01*
X103580000Y-149821000D02*
X97080000Y-149821000D01*
X103550000Y-149861000D02*
X97110000Y-149861000D01*
X103519000Y-149901000D02*
X97141000Y-149901000D01*
X103486000Y-149941000D02*
X97174000Y-149941000D01*
X103454000Y-149981000D02*
X97206000Y-149981000D01*
X103420000Y-150021000D02*
X97240000Y-150021000D01*
X103385000Y-150061000D02*
X97275000Y-150061000D01*
X103349000Y-150101000D02*
X97311000Y-150101000D01*
X103313000Y-150141000D02*
X97347000Y-150141000D01*
X103275000Y-150181000D02*
X97385000Y-150181000D01*
X103237000Y-150221000D02*
X97423000Y-150221000D01*
X103197000Y-150261000D02*
X97463000Y-150261000D01*
X103156000Y-150301000D02*
X97504000Y-150301000D01*
X103114000Y-150341000D02*
X97546000Y-150341000D01*
X103071000Y-150381000D02*
X97589000Y-150381000D01*
X103027000Y-150421000D02*
X97633000Y-150421000D01*
X102981000Y-150461000D02*
X97679000Y-150461000D01*
X102934000Y-150501000D02*
X97726000Y-150501000D01*
X102886000Y-150541000D02*
X97774000Y-150541000D01*
X102835000Y-150581000D02*
X97825000Y-150581000D01*
X102784000Y-150621000D02*
X97876000Y-150621000D01*
X102730000Y-150661000D02*
X97930000Y-150661000D01*
X102675000Y-150701000D02*
X97985000Y-150701000D01*
X102617000Y-150741000D02*
X98043000Y-150741000D01*
X102558000Y-150781000D02*
X98102000Y-150781000D01*
X102496000Y-150821000D02*
X98164000Y-150821000D01*
X102432000Y-150861000D02*
X98228000Y-150861000D01*
X102364000Y-150901000D02*
X98296000Y-150901000D01*
X102294000Y-150941000D02*
X98366000Y-150941000D01*
X102220000Y-150981000D02*
X98440000Y-150981000D01*
X102143000Y-151021000D02*
X98517000Y-151021000D01*
X102061000Y-151061000D02*
X98599000Y-151061000D01*
X101975000Y-151101000D02*
X98685000Y-151101000D01*
X101882000Y-151141000D02*
X98778000Y-151141000D01*
X101783000Y-151181000D02*
X98877000Y-151181000D01*
X101676000Y-151221000D02*
X98984000Y-151221000D01*
X101559000Y-151261000D02*
X99101000Y-151261000D01*
X101428000Y-151301000D02*
X99232000Y-151301000D01*
X101278000Y-151341000D02*
X99382000Y-151341000D01*
X101098000Y-151381000D02*
X99562000Y-151381000D01*
X100863000Y-151421000D02*
X99797000Y-151421000D01*
X102645000Y-142930302D02*
X102645000Y-143730302D01*
X103045000Y-143330302D02*
X102245000Y-143330302D01*
%TO.C,D1*%
X71630000Y-125360000D02*
X71630000Y-125030000D01*
X71630000Y-125030000D02*
X80770000Y-125030000D01*
X80770000Y-125030000D02*
X80770000Y-125360000D01*
X71630000Y-128640000D02*
X71630000Y-128970000D01*
X71630000Y-128970000D02*
X80770000Y-128970000D01*
X80770000Y-128970000D02*
X80770000Y-128640000D01*
X73085000Y-125030000D02*
X73085000Y-128970000D01*
X73205000Y-125030000D02*
X73205000Y-128970000D01*
X72965000Y-125030000D02*
X72965000Y-128970000D01*
%TO.C,D2*%
X72965000Y-154240000D02*
X72965000Y-158180000D01*
X73205000Y-154240000D02*
X73205000Y-158180000D01*
X73085000Y-154240000D02*
X73085000Y-158180000D01*
X80770000Y-158180000D02*
X80770000Y-157850000D01*
X71630000Y-158180000D02*
X80770000Y-158180000D01*
X71630000Y-157850000D02*
X71630000Y-158180000D01*
X80770000Y-154240000D02*
X80770000Y-154570000D01*
X71630000Y-154240000D02*
X80770000Y-154240000D01*
X71630000Y-154570000D02*
X71630000Y-154240000D01*
%TO.C,J6*%
X128210000Y-59630000D02*
X128210000Y-62290000D01*
X135890000Y-59630000D02*
X128210000Y-59630000D01*
X135890000Y-62290000D02*
X128210000Y-62290000D01*
X135890000Y-59630000D02*
X135890000Y-62290000D01*
X137160000Y-59630000D02*
X138490000Y-59630000D01*
X138490000Y-59630000D02*
X138490000Y-60960000D01*
%TO.C,J7*%
X138490000Y-74870000D02*
X138490000Y-76200000D01*
X137160000Y-74870000D02*
X138490000Y-74870000D01*
X135890000Y-74870000D02*
X135890000Y-77530000D01*
X135890000Y-77530000D02*
X130750000Y-77530000D01*
X135890000Y-74870000D02*
X130750000Y-74870000D01*
X130750000Y-74870000D02*
X130750000Y-77530000D01*
%TO.C,J8*%
X130750000Y-90110000D02*
X130750000Y-92770000D01*
X135890000Y-90110000D02*
X130750000Y-90110000D01*
X135890000Y-92770000D02*
X130750000Y-92770000D01*
X135890000Y-90110000D02*
X135890000Y-92770000D01*
X137160000Y-90110000D02*
X138490000Y-90110000D01*
X138490000Y-90110000D02*
X138490000Y-91440000D01*
%TO.C,L1*%
X90400000Y-116840000D02*
X89980000Y-116840000D01*
X82320000Y-116840000D02*
X82740000Y-116840000D01*
X89980000Y-115070000D02*
X82740000Y-115070000D01*
X89980000Y-118610000D02*
X89980000Y-115070000D01*
X82740000Y-118610000D02*
X89980000Y-118610000D01*
X82740000Y-115070000D02*
X82740000Y-118610000D01*
%TO.C,R3*%
X105950000Y-126900000D02*
X105950000Y-127230000D01*
X112490000Y-126900000D02*
X105950000Y-126900000D01*
X112490000Y-127230000D02*
X112490000Y-126900000D01*
X105950000Y-129640000D02*
X105950000Y-129310000D01*
X112490000Y-129640000D02*
X105950000Y-129640000D01*
X112490000Y-129310000D02*
X112490000Y-129640000D01*
%TO.C,R6*%
X130080000Y-83720000D02*
X130080000Y-84050000D01*
X136620000Y-83720000D02*
X130080000Y-83720000D01*
X136620000Y-84050000D02*
X136620000Y-83720000D01*
X130080000Y-86460000D02*
X130080000Y-86130000D01*
X136620000Y-86460000D02*
X130080000Y-86460000D01*
X136620000Y-86130000D02*
X136620000Y-86460000D01*
%TO.C,RV1*%
X115560000Y-114495000D02*
X115560000Y-124265000D01*
X110490000Y-114495000D02*
X110490000Y-124265000D01*
X115560000Y-114495000D02*
X110490000Y-114495000D01*
X115560000Y-124265000D02*
X110490000Y-124265000D01*
%TO.C,RV2*%
X111955000Y-26680000D02*
X121725000Y-26680000D01*
X111955000Y-31750000D02*
X121725000Y-31750000D01*
X111955000Y-26680000D02*
X111955000Y-31750000D01*
X121725000Y-26680000D02*
X121725000Y-31750000D01*
%TO.C,RV3*%
X121725000Y-40650000D02*
X121725000Y-45720000D01*
X111955000Y-40650000D02*
X111955000Y-45720000D01*
X111955000Y-45720000D02*
X121725000Y-45720000D01*
X111955000Y-40650000D02*
X121725000Y-40650000D01*
%TO.C,TP1*%
X109650000Y-68580000D02*
G75*
G03*
X109650000Y-68580000I-1700000J0D01*
G01*
%TO.C,TP2*%
X109650000Y-60960000D02*
G75*
G03*
X109650000Y-60960000I-1700000J0D01*
G01*
%TO.C,TP3*%
X93140000Y-127000000D02*
G75*
G03*
X93140000Y-127000000I-1700000J0D01*
G01*
%TO.C,TP4*%
X102030000Y-104140000D02*
G75*
G03*
X102030000Y-104140000I-1700000J0D01*
G01*
%TO.C,TP5*%
X128700000Y-22860000D02*
G75*
G03*
X128700000Y-22860000I-1700000J0D01*
G01*
%TO.C,TP6*%
X128700000Y-36830000D02*
G75*
G03*
X128700000Y-36830000I-1700000J0D01*
G01*
%TO.C,TP7*%
X93140000Y-156210000D02*
G75*
G03*
X93140000Y-156210000I-1700000J0D01*
G01*
%TO.C,TP8*%
X102030000Y-137160000D02*
G75*
G03*
X102030000Y-137160000I-1700000J0D01*
G01*
%TO.C,TP9*%
X126160000Y-91440000D02*
G75*
G03*
X126160000Y-91440000I-1700000J0D01*
G01*
%TO.C,U1*%
X65589000Y-114070000D02*
X75830000Y-114070000D01*
X65589000Y-118811000D02*
X75830000Y-118811000D01*
X65589000Y-114070000D02*
X65589000Y-118811000D01*
X75830000Y-114070000D02*
X75830000Y-118811000D01*
X65589000Y-115610000D02*
X75830000Y-115610000D01*
%TO.C,L2*%
X82740000Y-144280000D02*
X82740000Y-147820000D01*
X82740000Y-147820000D02*
X89980000Y-147820000D01*
X89980000Y-147820000D02*
X89980000Y-144280000D01*
X89980000Y-144280000D02*
X82740000Y-144280000D01*
X82320000Y-146050000D02*
X82740000Y-146050000D01*
X90400000Y-146050000D02*
X89980000Y-146050000D01*
%TO.C,R4*%
X105950000Y-156110000D02*
X105950000Y-156440000D01*
X112490000Y-156110000D02*
X105950000Y-156110000D01*
X112490000Y-156440000D02*
X112490000Y-156110000D01*
X105950000Y-158850000D02*
X105950000Y-158520000D01*
X112490000Y-158850000D02*
X105950000Y-158850000D01*
X112490000Y-158520000D02*
X112490000Y-158850000D01*
%TO.C,R5*%
X136620000Y-70890000D02*
X136620000Y-71220000D01*
X136620000Y-71220000D02*
X130080000Y-71220000D01*
X130080000Y-71220000D02*
X130080000Y-70890000D01*
X136620000Y-68810000D02*
X136620000Y-68480000D01*
X136620000Y-68480000D02*
X130080000Y-68480000D01*
X130080000Y-68480000D02*
X130080000Y-68810000D01*
%TO.C,RV4*%
X115560000Y-143705000D02*
X115560000Y-153475000D01*
X110490000Y-143705000D02*
X110490000Y-153475000D01*
X115560000Y-143705000D02*
X110490000Y-143705000D01*
X115560000Y-153475000D02*
X110490000Y-153475000D01*
%TO.C,U2*%
X65569000Y-143280000D02*
X75810000Y-143280000D01*
X65569000Y-148021000D02*
X75810000Y-148021000D01*
X65569000Y-143280000D02*
X65569000Y-148021000D01*
X75810000Y-143280000D02*
X75810000Y-148021000D01*
X65569000Y-144820000D02*
X75810000Y-144820000D01*
%TO.C,J1*%
X33430000Y-111760000D02*
G75*
G03*
X33430000Y-111760000I-1680000J0D01*
G01*
X33430000Y-116840000D02*
G75*
G03*
X33430000Y-116840000I-1680000J0D01*
G01*
X33430000Y-121920000D02*
G75*
G03*
X33430000Y-121920000I-1680000J0D01*
G01*
X33430000Y-127000000D02*
G75*
G03*
X33430000Y-127000000I-1680000J0D01*
G01*
X33430000Y-132080000D02*
G75*
G03*
X33430000Y-132080000I-1680000J0D01*
G01*
X27650000Y-104080000D02*
X27650000Y-134680000D01*
X29150000Y-104080000D02*
X29150000Y-134680000D01*
X34051000Y-104080000D02*
X34051000Y-134680000D01*
X37011000Y-104080000D02*
X37011000Y-134680000D01*
X27090000Y-104080000D02*
X27090000Y-134680000D01*
X37011000Y-104080000D02*
X27090000Y-104080000D01*
X37011000Y-134680000D02*
X27090000Y-134680000D01*
X32819000Y-113035000D02*
X32773000Y-112988000D01*
X30511000Y-110726000D02*
X30476000Y-110691000D01*
X33025000Y-112830000D02*
X32989000Y-112795000D01*
X30727000Y-110533000D02*
X30681000Y-110486000D01*
X32819000Y-118115000D02*
X32773000Y-118068000D01*
X30511000Y-115806000D02*
X30476000Y-115771000D01*
X33025000Y-117910000D02*
X32989000Y-117875000D01*
X30727000Y-115613000D02*
X30681000Y-115566000D01*
X32819000Y-123195000D02*
X32773000Y-123148000D01*
X30511000Y-120886000D02*
X30476000Y-120851000D01*
X33025000Y-122990000D02*
X32989000Y-122955000D01*
X30727000Y-120693000D02*
X30681000Y-120646000D01*
X32819000Y-128275000D02*
X32773000Y-128228000D01*
X30511000Y-125966000D02*
X30476000Y-125931000D01*
X33025000Y-128070000D02*
X32989000Y-128035000D01*
X30727000Y-125773000D02*
X30681000Y-125726000D01*
X32819000Y-133355000D02*
X32773000Y-133308000D01*
X30511000Y-131046000D02*
X30476000Y-131011000D01*
X33025000Y-133150000D02*
X32989000Y-133115000D01*
X30727000Y-130853000D02*
X30681000Y-130806000D01*
X27590000Y-103840000D02*
X26850000Y-103840000D01*
X26850000Y-103840000D02*
X26850000Y-104340000D01*
X30215244Y-107363318D02*
G75*
G02*
X30070000Y-106680000I1534756J683318D01*
G01*
X32433042Y-108215426D02*
G75*
G02*
X31066000Y-108215000I-683042J1535426D01*
G01*
X33285426Y-105996958D02*
G75*
G02*
X33285000Y-107364000I-1535426J-683042D01*
G01*
X31066958Y-105144574D02*
G75*
G02*
X32434000Y-105145000I683042J-1535426D01*
G01*
X30069747Y-106708805D02*
G75*
G02*
X30215000Y-105996000I1680253J28805D01*
G01*
%TO.C,J2*%
X33430000Y-97790000D02*
G75*
G03*
X33430000Y-97790000I-1680000J0D01*
G01*
X27650000Y-90110000D02*
X27650000Y-100390000D01*
X29150000Y-90110000D02*
X29150000Y-100390000D01*
X34051000Y-90110000D02*
X34051000Y-100390000D01*
X37011000Y-90110000D02*
X37011000Y-100390000D01*
X27090000Y-90110000D02*
X27090000Y-100390000D01*
X37011000Y-90110000D02*
X27090000Y-90110000D01*
X37011000Y-100390000D02*
X27090000Y-100390000D01*
X32819000Y-99065000D02*
X32773000Y-99018000D01*
X30511000Y-96756000D02*
X30476000Y-96721000D01*
X33025000Y-98860000D02*
X32989000Y-98825000D01*
X30727000Y-96563000D02*
X30681000Y-96516000D01*
X27590000Y-89870000D02*
X26850000Y-89870000D01*
X26850000Y-89870000D02*
X26850000Y-90370000D01*
X30215244Y-93393318D02*
G75*
G02*
X30070000Y-92710000I1534756J683318D01*
G01*
X32433042Y-94245426D02*
G75*
G02*
X31066000Y-94245000I-683042J1535426D01*
G01*
X33285426Y-92026958D02*
G75*
G02*
X33285000Y-93394000I-1535426J-683042D01*
G01*
X31066958Y-91174574D02*
G75*
G02*
X32434000Y-91175000I683042J-1535426D01*
G01*
X30069747Y-92738805D02*
G75*
G02*
X30215000Y-92026000I1680253J28805D01*
G01*
%TO.C,J3*%
X26850000Y-75900000D02*
X26850000Y-76400000D01*
X27590000Y-75900000D02*
X26850000Y-75900000D01*
X30727000Y-82593000D02*
X30681000Y-82546000D01*
X33025000Y-84890000D02*
X32989000Y-84855000D01*
X30511000Y-82786000D02*
X30476000Y-82751000D01*
X32819000Y-85095000D02*
X32773000Y-85048000D01*
X37011000Y-86420000D02*
X27090000Y-86420000D01*
X37011000Y-76140000D02*
X27090000Y-76140000D01*
X27090000Y-76140000D02*
X27090000Y-86420000D01*
X37011000Y-76140000D02*
X37011000Y-86420000D01*
X34051000Y-76140000D02*
X34051000Y-86420000D01*
X29150000Y-76140000D02*
X29150000Y-86420000D01*
X27650000Y-76140000D02*
X27650000Y-86420000D01*
X33430000Y-83820000D02*
G75*
G03*
X33430000Y-83820000I-1680000J0D01*
G01*
X30069747Y-78768805D02*
G75*
G02*
X30215000Y-78056000I1680253J28805D01*
G01*
X31066958Y-77204574D02*
G75*
G02*
X32434000Y-77205000I683042J-1535426D01*
G01*
X33285426Y-78056958D02*
G75*
G02*
X33285000Y-79424000I-1535426J-683042D01*
G01*
X32433042Y-80275426D02*
G75*
G02*
X31066000Y-80275000I-683042J1535426D01*
G01*
X30215244Y-79423318D02*
G75*
G02*
X30070000Y-78740000I1534756J683318D01*
G01*
%TO.C,J5*%
X33430000Y-146050000D02*
G75*
G03*
X33430000Y-146050000I-1680000J0D01*
G01*
X27650000Y-138370000D02*
X27650000Y-148650000D01*
X29150000Y-138370000D02*
X29150000Y-148650000D01*
X34051000Y-138370000D02*
X34051000Y-148650000D01*
X37011000Y-138370000D02*
X37011000Y-148650000D01*
X27090000Y-138370000D02*
X27090000Y-148650000D01*
X37011000Y-138370000D02*
X27090000Y-138370000D01*
X37011000Y-148650000D02*
X27090000Y-148650000D01*
X32819000Y-147325000D02*
X32773000Y-147278000D01*
X30511000Y-145016000D02*
X30476000Y-144981000D01*
X33025000Y-147120000D02*
X32989000Y-147085000D01*
X30727000Y-144823000D02*
X30681000Y-144776000D01*
X27590000Y-138130000D02*
X26850000Y-138130000D01*
X26850000Y-138130000D02*
X26850000Y-138630000D01*
X30215244Y-141653318D02*
G75*
G02*
X30070000Y-140970000I1534756J683318D01*
G01*
X32433042Y-142505426D02*
G75*
G02*
X31066000Y-142505000I-683042J1535426D01*
G01*
X33285426Y-140286958D02*
G75*
G02*
X33285000Y-141654000I-1535426J-683042D01*
G01*
X31066958Y-139434574D02*
G75*
G02*
X32434000Y-139435000I683042J-1535426D01*
G01*
X30069747Y-140998805D02*
G75*
G02*
X30215000Y-140286000I1680253J28805D01*
G01*
%TO.C,H1*%
X28150000Y-24130000D02*
G75*
G03*
X28150000Y-24130000I-2750000J0D01*
G01*
%TO.C,H2*%
X141180000Y-24130000D02*
G75*
G03*
X141180000Y-24130000I-2750000J0D01*
G01*
%TO.C,H3*%
X28150000Y-157480000D02*
G75*
G03*
X28150000Y-157480000I-2750000J0D01*
G01*
%TO.C,H4*%
X141180000Y-157480000D02*
G75*
G03*
X141180000Y-157480000I-2750000J0D01*
G01*
%TO.C,R1*%
X125670000Y-27880000D02*
X125670000Y-30540000D01*
X128270000Y-27880000D02*
X125670000Y-27880000D01*
X128270000Y-30540000D02*
X125670000Y-30540000D01*
X128270000Y-27880000D02*
X128270000Y-30540000D01*
X129540000Y-27880000D02*
X130870000Y-27880000D01*
X130870000Y-27880000D02*
X130870000Y-29210000D01*
%TO.C,R2*%
X130870000Y-41850000D02*
X130870000Y-43180000D01*
X129540000Y-41850000D02*
X130870000Y-41850000D01*
X128270000Y-41850000D02*
X128270000Y-44510000D01*
X128270000Y-44510000D02*
X125670000Y-44510000D01*
X128270000Y-41850000D02*
X125670000Y-41850000D01*
X125670000Y-41850000D02*
X125670000Y-44510000D01*
%TO.C,J4*%
D10*
X116506666Y-57872380D02*
X116506666Y-58586666D01*
X116459047Y-58729523D01*
X116363809Y-58824761D01*
X116220952Y-58872380D01*
X116125714Y-58872380D01*
X117411428Y-58205714D02*
X117411428Y-58872380D01*
X117173333Y-57824761D02*
X116935238Y-58539047D01*
X117554285Y-58539047D01*
%TO.C,A1*%
X101766666Y-55324285D02*
X101766666Y-54848095D01*
X102052380Y-55419523D02*
X101052380Y-55086190D01*
X102052380Y-54752857D01*
X102052380Y-53895714D02*
X102052380Y-54467142D01*
X102052380Y-54181428D02*
X101052380Y-54181428D01*
X101195238Y-54276666D01*
X101290476Y-54371904D01*
X101338095Y-54467142D01*
%TO.C,J9*%
X139156666Y-106132380D02*
X139156666Y-106846666D01*
X139109047Y-106989523D01*
X139013809Y-107084761D01*
X138870952Y-107132380D01*
X138775714Y-107132380D01*
X139680476Y-107132380D02*
X139870952Y-107132380D01*
X139966190Y-107084761D01*
X140013809Y-107037142D01*
X140109047Y-106894285D01*
X140156666Y-106703809D01*
X140156666Y-106322857D01*
X140109047Y-106227619D01*
X140061428Y-106180000D01*
X139966190Y-106132380D01*
X139775714Y-106132380D01*
X139680476Y-106180000D01*
X139632857Y-106227619D01*
X139585238Y-106322857D01*
X139585238Y-106560952D01*
X139632857Y-106656190D01*
X139680476Y-106703809D01*
X139775714Y-106751428D01*
X139966190Y-106751428D01*
X140061428Y-106703809D01*
X140109047Y-106656190D01*
X140156666Y-106560952D01*
%TO.C,TP10*%
X122721904Y-103634380D02*
X123293333Y-103634380D01*
X123007619Y-104634380D02*
X123007619Y-103634380D01*
X123626666Y-104634380D02*
X123626666Y-103634380D01*
X124007619Y-103634380D01*
X124102857Y-103682000D01*
X124150476Y-103729619D01*
X124198095Y-103824857D01*
X124198095Y-103967714D01*
X124150476Y-104062952D01*
X124102857Y-104110571D01*
X124007619Y-104158190D01*
X123626666Y-104158190D01*
X125150476Y-104634380D02*
X124579047Y-104634380D01*
X124864761Y-104634380D02*
X124864761Y-103634380D01*
X124769523Y-103777238D01*
X124674285Y-103872476D01*
X124579047Y-103920095D01*
X125769523Y-103634380D02*
X125864761Y-103634380D01*
X125960000Y-103682000D01*
X126007619Y-103729619D01*
X126055238Y-103824857D01*
X126102857Y-104015333D01*
X126102857Y-104253428D01*
X126055238Y-104443904D01*
X126007619Y-104539142D01*
X125960000Y-104586761D01*
X125864761Y-104634380D01*
X125769523Y-104634380D01*
X125674285Y-104586761D01*
X125626666Y-104539142D01*
X125579047Y-104443904D01*
X125531428Y-104253428D01*
X125531428Y-104015333D01*
X125579047Y-103824857D01*
X125626666Y-103729619D01*
X125674285Y-103682000D01*
X125769523Y-103634380D01*
%TO.C,C1*%
X55713333Y-112117142D02*
X55665714Y-112164761D01*
X55522857Y-112212380D01*
X55427619Y-112212380D01*
X55284761Y-112164761D01*
X55189523Y-112069523D01*
X55141904Y-111974285D01*
X55094285Y-111783809D01*
X55094285Y-111640952D01*
X55141904Y-111450476D01*
X55189523Y-111355238D01*
X55284761Y-111260000D01*
X55427619Y-111212380D01*
X55522857Y-111212380D01*
X55665714Y-111260000D01*
X55713333Y-111307619D01*
X56665714Y-112212380D02*
X56094285Y-112212380D01*
X56380000Y-112212380D02*
X56380000Y-111212380D01*
X56284761Y-111355238D01*
X56189523Y-111450476D01*
X56094285Y-111498095D01*
%TO.C,C2*%
X100163333Y-113387142D02*
X100115714Y-113434761D01*
X99972857Y-113482380D01*
X99877619Y-113482380D01*
X99734761Y-113434761D01*
X99639523Y-113339523D01*
X99591904Y-113244285D01*
X99544285Y-113053809D01*
X99544285Y-112910952D01*
X99591904Y-112720476D01*
X99639523Y-112625238D01*
X99734761Y-112530000D01*
X99877619Y-112482380D01*
X99972857Y-112482380D01*
X100115714Y-112530000D01*
X100163333Y-112577619D01*
X100544285Y-112577619D02*
X100591904Y-112530000D01*
X100687142Y-112482380D01*
X100925238Y-112482380D01*
X101020476Y-112530000D01*
X101068095Y-112577619D01*
X101115714Y-112672857D01*
X101115714Y-112768095D01*
X101068095Y-112910952D01*
X100496666Y-113482380D01*
X101115714Y-113482380D01*
%TO.C,C3*%
X55713333Y-141327142D02*
X55665714Y-141374761D01*
X55522857Y-141422380D01*
X55427619Y-141422380D01*
X55284761Y-141374761D01*
X55189523Y-141279523D01*
X55141904Y-141184285D01*
X55094285Y-140993809D01*
X55094285Y-140850952D01*
X55141904Y-140660476D01*
X55189523Y-140565238D01*
X55284761Y-140470000D01*
X55427619Y-140422380D01*
X55522857Y-140422380D01*
X55665714Y-140470000D01*
X55713333Y-140517619D01*
X56046666Y-140422380D02*
X56665714Y-140422380D01*
X56332380Y-140803333D01*
X56475238Y-140803333D01*
X56570476Y-140850952D01*
X56618095Y-140898571D01*
X56665714Y-140993809D01*
X56665714Y-141231904D01*
X56618095Y-141327142D01*
X56570476Y-141374761D01*
X56475238Y-141422380D01*
X56189523Y-141422380D01*
X56094285Y-141374761D01*
X56046666Y-141327142D01*
%TO.C,C4*%
X100163333Y-142597142D02*
X100115714Y-142644761D01*
X99972857Y-142692380D01*
X99877619Y-142692380D01*
X99734761Y-142644761D01*
X99639523Y-142549523D01*
X99591904Y-142454285D01*
X99544285Y-142263809D01*
X99544285Y-142120952D01*
X99591904Y-141930476D01*
X99639523Y-141835238D01*
X99734761Y-141740000D01*
X99877619Y-141692380D01*
X99972857Y-141692380D01*
X100115714Y-141740000D01*
X100163333Y-141787619D01*
X101020476Y-142025714D02*
X101020476Y-142692380D01*
X100782380Y-141644761D02*
X100544285Y-142359047D01*
X101163333Y-142359047D01*
%TO.C,D1*%
X75461904Y-124482380D02*
X75461904Y-123482380D01*
X75700000Y-123482380D01*
X75842857Y-123530000D01*
X75938095Y-123625238D01*
X75985714Y-123720476D01*
X76033333Y-123910952D01*
X76033333Y-124053809D01*
X75985714Y-124244285D01*
X75938095Y-124339523D01*
X75842857Y-124434761D01*
X75700000Y-124482380D01*
X75461904Y-124482380D01*
X76985714Y-124482380D02*
X76414285Y-124482380D01*
X76700000Y-124482380D02*
X76700000Y-123482380D01*
X76604761Y-123625238D01*
X76509523Y-123720476D01*
X76414285Y-123768095D01*
X70858095Y-125052380D02*
X70858095Y-124052380D01*
X71429523Y-125052380D02*
X71000952Y-124480952D01*
X71429523Y-124052380D02*
X70858095Y-124623809D01*
%TO.C,D2*%
X75461904Y-153692380D02*
X75461904Y-152692380D01*
X75700000Y-152692380D01*
X75842857Y-152740000D01*
X75938095Y-152835238D01*
X75985714Y-152930476D01*
X76033333Y-153120952D01*
X76033333Y-153263809D01*
X75985714Y-153454285D01*
X75938095Y-153549523D01*
X75842857Y-153644761D01*
X75700000Y-153692380D01*
X75461904Y-153692380D01*
X76414285Y-152787619D02*
X76461904Y-152740000D01*
X76557142Y-152692380D01*
X76795238Y-152692380D01*
X76890476Y-152740000D01*
X76938095Y-152787619D01*
X76985714Y-152882857D01*
X76985714Y-152978095D01*
X76938095Y-153120952D01*
X76366666Y-153692380D01*
X76985714Y-153692380D01*
X70858095Y-154262380D02*
X70858095Y-153262380D01*
X71429523Y-154262380D02*
X71000952Y-153690952D01*
X71429523Y-153262380D02*
X70858095Y-153833809D01*
%TO.C,J6*%
X139156666Y-60412380D02*
X139156666Y-61126666D01*
X139109047Y-61269523D01*
X139013809Y-61364761D01*
X138870952Y-61412380D01*
X138775714Y-61412380D01*
X140061428Y-60412380D02*
X139870952Y-60412380D01*
X139775714Y-60460000D01*
X139728095Y-60507619D01*
X139632857Y-60650476D01*
X139585238Y-60840952D01*
X139585238Y-61221904D01*
X139632857Y-61317142D01*
X139680476Y-61364761D01*
X139775714Y-61412380D01*
X139966190Y-61412380D01*
X140061428Y-61364761D01*
X140109047Y-61317142D01*
X140156666Y-61221904D01*
X140156666Y-60983809D01*
X140109047Y-60888571D01*
X140061428Y-60840952D01*
X139966190Y-60793333D01*
X139775714Y-60793333D01*
X139680476Y-60840952D01*
X139632857Y-60888571D01*
X139585238Y-60983809D01*
%TO.C,J7*%
X139156666Y-75652380D02*
X139156666Y-76366666D01*
X139109047Y-76509523D01*
X139013809Y-76604761D01*
X138870952Y-76652380D01*
X138775714Y-76652380D01*
X139537619Y-75652380D02*
X140204285Y-75652380D01*
X139775714Y-76652380D01*
%TO.C,J8*%
X139156666Y-90892380D02*
X139156666Y-91606666D01*
X139109047Y-91749523D01*
X139013809Y-91844761D01*
X138870952Y-91892380D01*
X138775714Y-91892380D01*
X139775714Y-91320952D02*
X139680476Y-91273333D01*
X139632857Y-91225714D01*
X139585238Y-91130476D01*
X139585238Y-91082857D01*
X139632857Y-90987619D01*
X139680476Y-90940000D01*
X139775714Y-90892380D01*
X139966190Y-90892380D01*
X140061428Y-90940000D01*
X140109047Y-90987619D01*
X140156666Y-91082857D01*
X140156666Y-91130476D01*
X140109047Y-91225714D01*
X140061428Y-91273333D01*
X139966190Y-91320952D01*
X139775714Y-91320952D01*
X139680476Y-91368571D01*
X139632857Y-91416190D01*
X139585238Y-91511428D01*
X139585238Y-91701904D01*
X139632857Y-91797142D01*
X139680476Y-91844761D01*
X139775714Y-91892380D01*
X139966190Y-91892380D01*
X140061428Y-91844761D01*
X140109047Y-91797142D01*
X140156666Y-91701904D01*
X140156666Y-91511428D01*
X140109047Y-91416190D01*
X140061428Y-91368571D01*
X139966190Y-91320952D01*
%TO.C,L1*%
X86193333Y-114522380D02*
X85717142Y-114522380D01*
X85717142Y-113522380D01*
X87050476Y-114522380D02*
X86479047Y-114522380D01*
X86764761Y-114522380D02*
X86764761Y-113522380D01*
X86669523Y-113665238D01*
X86574285Y-113760476D01*
X86479047Y-113808095D01*
%TO.C,R3*%
X109053333Y-126182380D02*
X108720000Y-125706190D01*
X108481904Y-126182380D02*
X108481904Y-125182380D01*
X108862857Y-125182380D01*
X108958095Y-125230000D01*
X109005714Y-125277619D01*
X109053333Y-125372857D01*
X109053333Y-125515714D01*
X109005714Y-125610952D01*
X108958095Y-125658571D01*
X108862857Y-125706190D01*
X108481904Y-125706190D01*
X109386666Y-125182380D02*
X110005714Y-125182380D01*
X109672380Y-125563333D01*
X109815238Y-125563333D01*
X109910476Y-125610952D01*
X109958095Y-125658571D01*
X110005714Y-125753809D01*
X110005714Y-125991904D01*
X109958095Y-126087142D01*
X109910476Y-126134761D01*
X109815238Y-126182380D01*
X109529523Y-126182380D01*
X109434285Y-126134761D01*
X109386666Y-126087142D01*
%TO.C,R6*%
X139533333Y-85542380D02*
X139200000Y-85066190D01*
X138961904Y-85542380D02*
X138961904Y-84542380D01*
X139342857Y-84542380D01*
X139438095Y-84590000D01*
X139485714Y-84637619D01*
X139533333Y-84732857D01*
X139533333Y-84875714D01*
X139485714Y-84970952D01*
X139438095Y-85018571D01*
X139342857Y-85066190D01*
X138961904Y-85066190D01*
X140390476Y-84542380D02*
X140200000Y-84542380D01*
X140104761Y-84590000D01*
X140057142Y-84637619D01*
X139961904Y-84780476D01*
X139914285Y-84970952D01*
X139914285Y-85351904D01*
X139961904Y-85447142D01*
X140009523Y-85494761D01*
X140104761Y-85542380D01*
X140295238Y-85542380D01*
X140390476Y-85494761D01*
X140438095Y-85447142D01*
X140485714Y-85351904D01*
X140485714Y-85113809D01*
X140438095Y-85018571D01*
X140390476Y-84970952D01*
X140295238Y-84923333D01*
X140104761Y-84923333D01*
X140009523Y-84970952D01*
X139961904Y-85018571D01*
X139914285Y-85113809D01*
%TO.C,RV1*%
X112434761Y-113482380D02*
X112101428Y-113006190D01*
X111863333Y-113482380D02*
X111863333Y-112482380D01*
X112244285Y-112482380D01*
X112339523Y-112530000D01*
X112387142Y-112577619D01*
X112434761Y-112672857D01*
X112434761Y-112815714D01*
X112387142Y-112910952D01*
X112339523Y-112958571D01*
X112244285Y-113006190D01*
X111863333Y-113006190D01*
X112720476Y-112482380D02*
X113053809Y-113482380D01*
X113387142Y-112482380D01*
X114244285Y-113482380D02*
X113672857Y-113482380D01*
X113958571Y-113482380D02*
X113958571Y-112482380D01*
X113863333Y-112625238D01*
X113768095Y-112720476D01*
X113672857Y-112768095D01*
%TO.C,RV2*%
X116244761Y-26002380D02*
X115911428Y-25526190D01*
X115673333Y-26002380D02*
X115673333Y-25002380D01*
X116054285Y-25002380D01*
X116149523Y-25050000D01*
X116197142Y-25097619D01*
X116244761Y-25192857D01*
X116244761Y-25335714D01*
X116197142Y-25430952D01*
X116149523Y-25478571D01*
X116054285Y-25526190D01*
X115673333Y-25526190D01*
X116530476Y-25002380D02*
X116863809Y-26002380D01*
X117197142Y-25002380D01*
X117482857Y-25097619D02*
X117530476Y-25050000D01*
X117625714Y-25002380D01*
X117863809Y-25002380D01*
X117959047Y-25050000D01*
X118006666Y-25097619D01*
X118054285Y-25192857D01*
X118054285Y-25288095D01*
X118006666Y-25430952D01*
X117435238Y-26002380D01*
X118054285Y-26002380D01*
%TO.C,RV3*%
X116244761Y-39972380D02*
X115911428Y-39496190D01*
X115673333Y-39972380D02*
X115673333Y-38972380D01*
X116054285Y-38972380D01*
X116149523Y-39020000D01*
X116197142Y-39067619D01*
X116244761Y-39162857D01*
X116244761Y-39305714D01*
X116197142Y-39400952D01*
X116149523Y-39448571D01*
X116054285Y-39496190D01*
X115673333Y-39496190D01*
X116530476Y-38972380D02*
X116863809Y-39972380D01*
X117197142Y-38972380D01*
X117435238Y-38972380D02*
X118054285Y-38972380D01*
X117720952Y-39353333D01*
X117863809Y-39353333D01*
X117959047Y-39400952D01*
X118006666Y-39448571D01*
X118054285Y-39543809D01*
X118054285Y-39781904D01*
X118006666Y-39877142D01*
X117959047Y-39924761D01*
X117863809Y-39972380D01*
X117578095Y-39972380D01*
X117482857Y-39924761D01*
X117435238Y-39877142D01*
%TO.C,TP1*%
X106688095Y-65534380D02*
X107259523Y-65534380D01*
X106973809Y-66534380D02*
X106973809Y-65534380D01*
X107592857Y-66534380D02*
X107592857Y-65534380D01*
X107973809Y-65534380D01*
X108069047Y-65582000D01*
X108116666Y-65629619D01*
X108164285Y-65724857D01*
X108164285Y-65867714D01*
X108116666Y-65962952D01*
X108069047Y-66010571D01*
X107973809Y-66058190D01*
X107592857Y-66058190D01*
X109116666Y-66534380D02*
X108545238Y-66534380D01*
X108830952Y-66534380D02*
X108830952Y-65534380D01*
X108735714Y-65677238D01*
X108640476Y-65772476D01*
X108545238Y-65820095D01*
%TO.C,TP2*%
X106688095Y-57914380D02*
X107259523Y-57914380D01*
X106973809Y-58914380D02*
X106973809Y-57914380D01*
X107592857Y-58914380D02*
X107592857Y-57914380D01*
X107973809Y-57914380D01*
X108069047Y-57962000D01*
X108116666Y-58009619D01*
X108164285Y-58104857D01*
X108164285Y-58247714D01*
X108116666Y-58342952D01*
X108069047Y-58390571D01*
X107973809Y-58438190D01*
X107592857Y-58438190D01*
X108545238Y-58009619D02*
X108592857Y-57962000D01*
X108688095Y-57914380D01*
X108926190Y-57914380D01*
X109021428Y-57962000D01*
X109069047Y-58009619D01*
X109116666Y-58104857D01*
X109116666Y-58200095D01*
X109069047Y-58342952D01*
X108497619Y-58914380D01*
X109116666Y-58914380D01*
%TO.C,TP3*%
X90178095Y-123954380D02*
X90749523Y-123954380D01*
X90463809Y-124954380D02*
X90463809Y-123954380D01*
X91082857Y-124954380D02*
X91082857Y-123954380D01*
X91463809Y-123954380D01*
X91559047Y-124002000D01*
X91606666Y-124049619D01*
X91654285Y-124144857D01*
X91654285Y-124287714D01*
X91606666Y-124382952D01*
X91559047Y-124430571D01*
X91463809Y-124478190D01*
X91082857Y-124478190D01*
X91987619Y-123954380D02*
X92606666Y-123954380D01*
X92273333Y-124335333D01*
X92416190Y-124335333D01*
X92511428Y-124382952D01*
X92559047Y-124430571D01*
X92606666Y-124525809D01*
X92606666Y-124763904D01*
X92559047Y-124859142D01*
X92511428Y-124906761D01*
X92416190Y-124954380D01*
X92130476Y-124954380D01*
X92035238Y-124906761D01*
X91987619Y-124859142D01*
%TO.C,TP4*%
X99068095Y-101094380D02*
X99639523Y-101094380D01*
X99353809Y-102094380D02*
X99353809Y-101094380D01*
X99972857Y-102094380D02*
X99972857Y-101094380D01*
X100353809Y-101094380D01*
X100449047Y-101142000D01*
X100496666Y-101189619D01*
X100544285Y-101284857D01*
X100544285Y-101427714D01*
X100496666Y-101522952D01*
X100449047Y-101570571D01*
X100353809Y-101618190D01*
X99972857Y-101618190D01*
X101401428Y-101427714D02*
X101401428Y-102094380D01*
X101163333Y-101046761D02*
X100925238Y-101761047D01*
X101544285Y-101761047D01*
%TO.C,TP5*%
X125738095Y-19772380D02*
X126309523Y-19772380D01*
X126023809Y-20772380D02*
X126023809Y-19772380D01*
X126642857Y-20772380D02*
X126642857Y-19772380D01*
X127023809Y-19772380D01*
X127119047Y-19820000D01*
X127166666Y-19867619D01*
X127214285Y-19962857D01*
X127214285Y-20105714D01*
X127166666Y-20200952D01*
X127119047Y-20248571D01*
X127023809Y-20296190D01*
X126642857Y-20296190D01*
X128119047Y-19772380D02*
X127642857Y-19772380D01*
X127595238Y-20248571D01*
X127642857Y-20200952D01*
X127738095Y-20153333D01*
X127976190Y-20153333D01*
X128071428Y-20200952D01*
X128119047Y-20248571D01*
X128166666Y-20343809D01*
X128166666Y-20581904D01*
X128119047Y-20677142D01*
X128071428Y-20724761D01*
X127976190Y-20772380D01*
X127738095Y-20772380D01*
X127642857Y-20724761D01*
X127595238Y-20677142D01*
%TO.C,TP6*%
X125738095Y-33742380D02*
X126309523Y-33742380D01*
X126023809Y-34742380D02*
X126023809Y-33742380D01*
X126642857Y-34742380D02*
X126642857Y-33742380D01*
X127023809Y-33742380D01*
X127119047Y-33790000D01*
X127166666Y-33837619D01*
X127214285Y-33932857D01*
X127214285Y-34075714D01*
X127166666Y-34170952D01*
X127119047Y-34218571D01*
X127023809Y-34266190D01*
X126642857Y-34266190D01*
X128071428Y-33742380D02*
X127880952Y-33742380D01*
X127785714Y-33790000D01*
X127738095Y-33837619D01*
X127642857Y-33980476D01*
X127595238Y-34170952D01*
X127595238Y-34551904D01*
X127642857Y-34647142D01*
X127690476Y-34694761D01*
X127785714Y-34742380D01*
X127976190Y-34742380D01*
X128071428Y-34694761D01*
X128119047Y-34647142D01*
X128166666Y-34551904D01*
X128166666Y-34313809D01*
X128119047Y-34218571D01*
X128071428Y-34170952D01*
X127976190Y-34123333D01*
X127785714Y-34123333D01*
X127690476Y-34170952D01*
X127642857Y-34218571D01*
X127595238Y-34313809D01*
%TO.C,TP7*%
X90178095Y-153164380D02*
X90749523Y-153164380D01*
X90463809Y-154164380D02*
X90463809Y-153164380D01*
X91082857Y-154164380D02*
X91082857Y-153164380D01*
X91463809Y-153164380D01*
X91559047Y-153212000D01*
X91606666Y-153259619D01*
X91654285Y-153354857D01*
X91654285Y-153497714D01*
X91606666Y-153592952D01*
X91559047Y-153640571D01*
X91463809Y-153688190D01*
X91082857Y-153688190D01*
X91987619Y-153164380D02*
X92654285Y-153164380D01*
X92225714Y-154164380D01*
%TO.C,TP8*%
X99068095Y-134114380D02*
X99639523Y-134114380D01*
X99353809Y-135114380D02*
X99353809Y-134114380D01*
X99972857Y-135114380D02*
X99972857Y-134114380D01*
X100353809Y-134114380D01*
X100449047Y-134162000D01*
X100496666Y-134209619D01*
X100544285Y-134304857D01*
X100544285Y-134447714D01*
X100496666Y-134542952D01*
X100449047Y-134590571D01*
X100353809Y-134638190D01*
X99972857Y-134638190D01*
X101115714Y-134542952D02*
X101020476Y-134495333D01*
X100972857Y-134447714D01*
X100925238Y-134352476D01*
X100925238Y-134304857D01*
X100972857Y-134209619D01*
X101020476Y-134162000D01*
X101115714Y-134114380D01*
X101306190Y-134114380D01*
X101401428Y-134162000D01*
X101449047Y-134209619D01*
X101496666Y-134304857D01*
X101496666Y-134352476D01*
X101449047Y-134447714D01*
X101401428Y-134495333D01*
X101306190Y-134542952D01*
X101115714Y-134542952D01*
X101020476Y-134590571D01*
X100972857Y-134638190D01*
X100925238Y-134733428D01*
X100925238Y-134923904D01*
X100972857Y-135019142D01*
X101020476Y-135066761D01*
X101115714Y-135114380D01*
X101306190Y-135114380D01*
X101401428Y-135066761D01*
X101449047Y-135019142D01*
X101496666Y-134923904D01*
X101496666Y-134733428D01*
X101449047Y-134638190D01*
X101401428Y-134590571D01*
X101306190Y-134542952D01*
%TO.C,TP9*%
X123198095Y-88394380D02*
X123769523Y-88394380D01*
X123483809Y-89394380D02*
X123483809Y-88394380D01*
X124102857Y-89394380D02*
X124102857Y-88394380D01*
X124483809Y-88394380D01*
X124579047Y-88442000D01*
X124626666Y-88489619D01*
X124674285Y-88584857D01*
X124674285Y-88727714D01*
X124626666Y-88822952D01*
X124579047Y-88870571D01*
X124483809Y-88918190D01*
X124102857Y-88918190D01*
X125150476Y-89394380D02*
X125340952Y-89394380D01*
X125436190Y-89346761D01*
X125483809Y-89299142D01*
X125579047Y-89156285D01*
X125626666Y-88965809D01*
X125626666Y-88584857D01*
X125579047Y-88489619D01*
X125531428Y-88442000D01*
X125436190Y-88394380D01*
X125245714Y-88394380D01*
X125150476Y-88442000D01*
X125102857Y-88489619D01*
X125055238Y-88584857D01*
X125055238Y-88822952D01*
X125102857Y-88918190D01*
X125150476Y-88965809D01*
X125245714Y-89013428D01*
X125436190Y-89013428D01*
X125531428Y-88965809D01*
X125579047Y-88918190D01*
X125626666Y-88822952D01*
%TO.C,U1*%
X69948095Y-112522380D02*
X69948095Y-113331904D01*
X69995714Y-113427142D01*
X70043333Y-113474761D01*
X70138571Y-113522380D01*
X70329047Y-113522380D01*
X70424285Y-113474761D01*
X70471904Y-113427142D01*
X70519523Y-113331904D01*
X70519523Y-112522380D01*
X71519523Y-113522380D02*
X70948095Y-113522380D01*
X71233809Y-113522380D02*
X71233809Y-112522380D01*
X71138571Y-112665238D01*
X71043333Y-112760476D01*
X70948095Y-112808095D01*
%TO.C,L2*%
X86193333Y-143732380D02*
X85717142Y-143732380D01*
X85717142Y-142732380D01*
X86479047Y-142827619D02*
X86526666Y-142780000D01*
X86621904Y-142732380D01*
X86860000Y-142732380D01*
X86955238Y-142780000D01*
X87002857Y-142827619D01*
X87050476Y-142922857D01*
X87050476Y-143018095D01*
X87002857Y-143160952D01*
X86431428Y-143732380D01*
X87050476Y-143732380D01*
%TO.C,R4*%
X109053333Y-155392380D02*
X108720000Y-154916190D01*
X108481904Y-155392380D02*
X108481904Y-154392380D01*
X108862857Y-154392380D01*
X108958095Y-154440000D01*
X109005714Y-154487619D01*
X109053333Y-154582857D01*
X109053333Y-154725714D01*
X109005714Y-154820952D01*
X108958095Y-154868571D01*
X108862857Y-154916190D01*
X108481904Y-154916190D01*
X109910476Y-154725714D02*
X109910476Y-155392380D01*
X109672380Y-154344761D02*
X109434285Y-155059047D01*
X110053333Y-155059047D01*
%TO.C,R5*%
X139533333Y-70302380D02*
X139200000Y-69826190D01*
X138961904Y-70302380D02*
X138961904Y-69302380D01*
X139342857Y-69302380D01*
X139438095Y-69350000D01*
X139485714Y-69397619D01*
X139533333Y-69492857D01*
X139533333Y-69635714D01*
X139485714Y-69730952D01*
X139438095Y-69778571D01*
X139342857Y-69826190D01*
X138961904Y-69826190D01*
X140438095Y-69302380D02*
X139961904Y-69302380D01*
X139914285Y-69778571D01*
X139961904Y-69730952D01*
X140057142Y-69683333D01*
X140295238Y-69683333D01*
X140390476Y-69730952D01*
X140438095Y-69778571D01*
X140485714Y-69873809D01*
X140485714Y-70111904D01*
X140438095Y-70207142D01*
X140390476Y-70254761D01*
X140295238Y-70302380D01*
X140057142Y-70302380D01*
X139961904Y-70254761D01*
X139914285Y-70207142D01*
%TO.C,RV4*%
X112434761Y-142692380D02*
X112101428Y-142216190D01*
X111863333Y-142692380D02*
X111863333Y-141692380D01*
X112244285Y-141692380D01*
X112339523Y-141740000D01*
X112387142Y-141787619D01*
X112434761Y-141882857D01*
X112434761Y-142025714D01*
X112387142Y-142120952D01*
X112339523Y-142168571D01*
X112244285Y-142216190D01*
X111863333Y-142216190D01*
X112720476Y-141692380D02*
X113053809Y-142692380D01*
X113387142Y-141692380D01*
X114149047Y-142025714D02*
X114149047Y-142692380D01*
X113910952Y-141644761D02*
X113672857Y-142359047D01*
X114291904Y-142359047D01*
%TO.C,U2*%
X69928095Y-141732380D02*
X69928095Y-142541904D01*
X69975714Y-142637142D01*
X70023333Y-142684761D01*
X70118571Y-142732380D01*
X70309047Y-142732380D01*
X70404285Y-142684761D01*
X70451904Y-142637142D01*
X70499523Y-142541904D01*
X70499523Y-141732380D01*
X70928095Y-141827619D02*
X70975714Y-141780000D01*
X71070952Y-141732380D01*
X71309047Y-141732380D01*
X71404285Y-141780000D01*
X71451904Y-141827619D01*
X71499523Y-141922857D01*
X71499523Y-142018095D01*
X71451904Y-142160952D01*
X70880476Y-142732380D01*
X71499523Y-142732380D01*
%TO.C,J1*%
X37462380Y-119713333D02*
X38176666Y-119713333D01*
X38319523Y-119760952D01*
X38414761Y-119856190D01*
X38462380Y-119999047D01*
X38462380Y-120094285D01*
X38462380Y-118713333D02*
X38462380Y-119284761D01*
X38462380Y-118999047D02*
X37462380Y-118999047D01*
X37605238Y-119094285D01*
X37700476Y-119189523D01*
X37748095Y-119284761D01*
%TO.C,J2*%
X37462380Y-95583333D02*
X38176666Y-95583333D01*
X38319523Y-95630952D01*
X38414761Y-95726190D01*
X38462380Y-95869047D01*
X38462380Y-95964285D01*
X37557619Y-95154761D02*
X37510000Y-95107142D01*
X37462380Y-95011904D01*
X37462380Y-94773809D01*
X37510000Y-94678571D01*
X37557619Y-94630952D01*
X37652857Y-94583333D01*
X37748095Y-94583333D01*
X37890952Y-94630952D01*
X38462380Y-95202380D01*
X38462380Y-94583333D01*
%TO.C,J3*%
X37462380Y-81613333D02*
X38176666Y-81613333D01*
X38319523Y-81660952D01*
X38414761Y-81756190D01*
X38462380Y-81899047D01*
X38462380Y-81994285D01*
X37462380Y-81232380D02*
X37462380Y-80613333D01*
X37843333Y-80946666D01*
X37843333Y-80803809D01*
X37890952Y-80708571D01*
X37938571Y-80660952D01*
X38033809Y-80613333D01*
X38271904Y-80613333D01*
X38367142Y-80660952D01*
X38414761Y-80708571D01*
X38462380Y-80803809D01*
X38462380Y-81089523D01*
X38414761Y-81184761D01*
X38367142Y-81232380D01*
%TO.C,J5*%
X37462380Y-143843333D02*
X38176666Y-143843333D01*
X38319523Y-143890952D01*
X38414761Y-143986190D01*
X38462380Y-144129047D01*
X38462380Y-144224285D01*
X37462380Y-142890952D02*
X37462380Y-143367142D01*
X37938571Y-143414761D01*
X37890952Y-143367142D01*
X37843333Y-143271904D01*
X37843333Y-143033809D01*
X37890952Y-142938571D01*
X37938571Y-142890952D01*
X38033809Y-142843333D01*
X38271904Y-142843333D01*
X38367142Y-142890952D01*
X38414761Y-142938571D01*
X38462380Y-143033809D01*
X38462380Y-143271904D01*
X38414761Y-143367142D01*
X38367142Y-143414761D01*
%TO.C,H1*%
X24638095Y-21034380D02*
X24638095Y-20034380D01*
X24638095Y-20510571D02*
X25209523Y-20510571D01*
X25209523Y-21034380D02*
X25209523Y-20034380D01*
X26209523Y-21034380D02*
X25638095Y-21034380D01*
X25923809Y-21034380D02*
X25923809Y-20034380D01*
X25828571Y-20177238D01*
X25733333Y-20272476D01*
X25638095Y-20320095D01*
%TO.C,H2*%
X137668095Y-21034380D02*
X137668095Y-20034380D01*
X137668095Y-20510571D02*
X138239523Y-20510571D01*
X138239523Y-21034380D02*
X138239523Y-20034380D01*
X138668095Y-20129619D02*
X138715714Y-20082000D01*
X138810952Y-20034380D01*
X139049047Y-20034380D01*
X139144285Y-20082000D01*
X139191904Y-20129619D01*
X139239523Y-20224857D01*
X139239523Y-20320095D01*
X139191904Y-20462952D01*
X138620476Y-21034380D01*
X139239523Y-21034380D01*
%TO.C,H3*%
X24638095Y-154384380D02*
X24638095Y-153384380D01*
X24638095Y-153860571D02*
X25209523Y-153860571D01*
X25209523Y-154384380D02*
X25209523Y-153384380D01*
X25590476Y-153384380D02*
X26209523Y-153384380D01*
X25876190Y-153765333D01*
X26019047Y-153765333D01*
X26114285Y-153812952D01*
X26161904Y-153860571D01*
X26209523Y-153955809D01*
X26209523Y-154193904D01*
X26161904Y-154289142D01*
X26114285Y-154336761D01*
X26019047Y-154384380D01*
X25733333Y-154384380D01*
X25638095Y-154336761D01*
X25590476Y-154289142D01*
%TO.C,H4*%
X137668095Y-154384380D02*
X137668095Y-153384380D01*
X137668095Y-153860571D02*
X138239523Y-153860571D01*
X138239523Y-154384380D02*
X138239523Y-153384380D01*
X139144285Y-153717714D02*
X139144285Y-154384380D01*
X138906190Y-153336761D02*
X138668095Y-154051047D01*
X139287142Y-154051047D01*
%TO.C,R1*%
X132322380Y-29376666D02*
X131846190Y-29710000D01*
X132322380Y-29948095D02*
X131322380Y-29948095D01*
X131322380Y-29567142D01*
X131370000Y-29471904D01*
X131417619Y-29424285D01*
X131512857Y-29376666D01*
X131655714Y-29376666D01*
X131750952Y-29424285D01*
X131798571Y-29471904D01*
X131846190Y-29567142D01*
X131846190Y-29948095D01*
X132322380Y-28424285D02*
X132322380Y-28995714D01*
X132322380Y-28710000D02*
X131322380Y-28710000D01*
X131465238Y-28805238D01*
X131560476Y-28900476D01*
X131608095Y-28995714D01*
%TO.C,R2*%
X132322380Y-43346666D02*
X131846190Y-43680000D01*
X132322380Y-43918095D02*
X131322380Y-43918095D01*
X131322380Y-43537142D01*
X131370000Y-43441904D01*
X131417619Y-43394285D01*
X131512857Y-43346666D01*
X131655714Y-43346666D01*
X131750952Y-43394285D01*
X131798571Y-43441904D01*
X131846190Y-43537142D01*
X131846190Y-43918095D01*
X131417619Y-42965714D02*
X131370000Y-42918095D01*
X131322380Y-42822857D01*
X131322380Y-42584761D01*
X131370000Y-42489523D01*
X131417619Y-42441904D01*
X131512857Y-42394285D01*
X131608095Y-42394285D01*
X131750952Y-42441904D01*
X132322380Y-43013333D01*
X132322380Y-42394285D01*
%TD*%
M02*
