M48
; DRILL file {KiCad (5.1.9)-1} date 10/02/21 13:05:54
; FORMAT={-:-/ absolute / inch / decimal}
; #@! TF.CreationDate,2021-10-02T13:05:54-07:00
; #@! TF.GenerationSoftware,Kicad,Pcbnew,(5.1.9)-1
; #@! TF.FileFunction,Plated,1,2,PTH
FMAT,2
INCH
T1C0.0157
T2C0.0315
T3C0.0394
T4C0.0433
T5C0.0512
T6C0.0551
T7C0.0787
T8C0.1575
%
G90
G05
T1
X3.05Y-3.5
X3.9Y-3.45
X4.05Y-3.9
X4.15Y-1.45
X4.25Y-1.55
T2
X3.2Y-4.6
X3.2Y-5.75
X3.6Y-4.6
X3.6Y-5.75
X3.95Y-4.6
X3.95Y-4.6984
X3.95Y-5.7516
X3.95Y-5.85
X4.15Y-5.05
X4.15Y-6.2
X4.45Y-4.6
X4.45Y-4.7
X4.45Y-4.8
X4.45Y-5.05
X4.45Y-5.75
X4.45Y-5.85
X4.45Y-5.95
X4.45Y-6.2
X4.5Y-1.15
X4.5Y-1.7
X4.6Y-1.15
X4.6Y-1.7
X4.7Y-1.15
X4.7Y-1.7
X5.1Y-2.75
X5.1Y-3.35
X5.4Y-2.75
X5.4Y-3.35
T3
X1.95Y-1.7402
X1.95Y-1.8402
X1.95Y-1.9402
X1.95Y-2.0402
X1.95Y-2.1402
X1.95Y-2.2402
X1.95Y-2.3402
X1.95Y-2.4402
X1.95Y-2.5402
X1.95Y-2.6402
X1.95Y-2.8
X1.95Y-2.9
X1.95Y-3.0
X1.95Y-3.1
X1.95Y-3.2
X1.95Y-3.3
X1.95Y-3.4
X1.95Y-3.5
X2.2Y-4.6
X2.2Y-4.7378
X2.2Y-5.75
X2.2Y-5.8878
X3.85Y-2.1
X3.85Y-2.2
X3.85Y-2.3
X3.85Y-2.4
X3.85Y-2.5
X3.85Y-2.6
X3.85Y-2.7
X3.85Y-2.8
X3.85Y-3.0
X3.85Y-3.1
X3.85Y-3.2
X3.85Y-3.3
X3.85Y-3.4
X3.85Y-3.5
X4.45Y-2.1
X4.45Y-2.2
X4.55Y-2.1
X4.55Y-2.2
X4.65Y-2.1
X4.65Y-2.2
X4.75Y-2.1
X4.75Y-2.2
X5.0Y-1.15
X5.0Y-1.7
X5.1Y-1.15
X5.1Y-1.7
X5.1Y-2.4
X5.2Y-2.4
X5.2Y-3.0
X5.2Y-3.6
X5.2Y-4.2
X5.3Y-2.4
X5.3Y-3.0
X5.3Y-3.6
X5.3Y-4.2
X5.4Y-2.4
X5.4Y-3.0
X5.4Y-3.6
X5.4Y-4.2
T4
X2.6492Y-5.75
X2.65Y-4.6
X2.7161Y-5.75
X2.7169Y-4.6
X2.7831Y-5.75
X2.7839Y-4.6
X2.85Y-5.75
X2.8508Y-4.6
X2.9169Y-5.75
X2.9177Y-4.6
T5
X1.25Y-3.1
X1.25Y-3.3
X1.25Y-3.65
X1.25Y-3.85
X1.25Y-4.2
X1.25Y-4.4
X1.25Y-4.6
X1.25Y-4.8
X1.25Y-5.0
X1.25Y-5.2
X1.25Y-5.55
X1.25Y-5.75
T6
X2.8Y-5.0
X2.8Y-6.15
X3.2Y-5.0
X3.2Y-6.15
T7
X3.6Y-5.0
X3.6Y-6.15
X3.95Y-4.1
X3.95Y-5.4
X4.25Y-2.4
X4.25Y-2.7
X4.9Y-3.6
X4.9Y-4.2
X5.0Y-0.9
X5.0Y-1.45
T8
X1.0Y-0.95
X1.0Y-6.2
X5.45Y-0.95
X5.45Y-6.2
T0
M30
